<svg width="12" height="10" viewBox="0 0 12 10" fill="none" xmlns="http://www.w3.org/2000/svg">
<path d="M7.70711 0.292893C7.31658 -0.0976311 6.68342 -0.0976311 6.29289 0.292893C5.90237 0.683417 5.90237 1.31658 6.29289 1.70711L7.70711 0.292893ZM11 5L11.7071 5.70711C12.0976 5.31658 12.0976 4.68342 11.7071 4.29289L11 5ZM6.29289 8.29289C5.90237 8.68342 5.90237 9.31658 6.29289 9.70711C6.68342 10.0976 7.31658 10.0976 7.70711 9.70711L6.29289 8.29289ZM6.29289 1.70711L10.2929 5.70711L11.7071 4.29289L7.70711 0.292893L6.29289 1.70711ZM10.2929 4.29289L6.29289 8.29289L7.70711 9.70711L11.7071 5.70711L10.2929 4.29289Z" fill="#2D2D2D"/>
<path d="M1.70711 0.292893C1.31658 -0.0976311 0.683417 -0.0976311 0.292893 0.292893C-0.0976311 0.683417 -0.0976311 1.31658 0.292893 1.70711L1.70711 0.292893ZM5 5L5.70711 5.70711C6.09763 5.31658 6.09763 4.68342 5.70711 4.29289L5 5ZM0.292893 8.29289C-0.0976311 8.68342 -0.0976311 9.31658 0.292893 9.70711C0.683417 10.0976 1.31658 10.0976 1.70711 9.70711L0.292893 8.29289ZM0.292893 1.70711L4.29289 5.70711L5.70711 4.29289L1.70711 0.292893L0.292893 1.70711ZM4.29289 4.29289L0.292893 8.29289L1.70711 9.70711L5.70711 5.70711L4.29289 4.29289Z" fill="#2D2D2D"/>
</svg>
