<svg width="36" height="36" viewBox="0 0 36 36" fill="none" xmlns="http://www.w3.org/2000/svg">
<path d="M6 12H30" stroke="#02B576" stroke-width="2" stroke-linecap="round" stroke-linejoin="round"/>
<path d="M28.5 6H7.5C6.67157 6 6 6.67157 6 7.5V28.5C6 29.3284 6.67157 30 7.5 30H28.5C29.3284 30 30 29.3284 30 28.5V7.5C30 6.67157 29.3284 6 28.5 6Z" stroke="#02B576" stroke-width="2" stroke-linecap="round" stroke-linejoin="round"/>
<path d="M23.2071 18.7071C23.5976 18.3166 23.5976 17.6834 23.2071 17.2929C22.8166 16.9024 22.1834 16.9024 21.7929 17.2929L23.2071 18.7071ZM16.5 24L15.7929 24.7071C16.1834 25.0976 16.8166 25.0976 17.2071 24.7071L16.5 24ZM14.2071 20.2929C13.8166 19.9024 13.1834 19.9024 12.7929 20.2929C12.4024 20.6834 12.4024 21.3166 12.7929 21.7071L14.2071 20.2929ZM21.7929 17.2929L15.7929 23.2929L17.2071 24.7071L23.2071 18.7071L21.7929 17.2929ZM17.2071 23.2929L14.2071 20.2929L12.7929 21.7071L15.7929 24.7071L17.2071 23.2929Z" fill="#02B576"/>
<path d="M24 3V6" stroke="#02B576" stroke-width="2" stroke-linecap="round" stroke-linejoin="round"/>
<path d="M12 3V6" stroke="#02B576" stroke-width="2" stroke-linecap="round" stroke-linejoin="round"/>
</svg>
