<svg width="40" height="40" viewBox="0 0 40 40" fill="none" xmlns="http://www.w3.org/2000/svg">
<path fill-rule="evenodd" clip-rule="evenodd" d="M19.9999 3.33301C26.4499 3.33301 31.6666 8.54967 31.6666 14.9997C31.6666 23.7497 19.9999 36.6663 19.9999 36.6663C19.9999 36.6663 8.33325 23.7497 8.33325 14.9997C8.33325 8.54967 13.5499 3.33301 19.9999 3.33301ZM11.6666 14.9997C11.6666 19.7497 16.5333 27.0163 19.9999 31.4663C23.5333 26.983 28.3333 19.7997 28.3333 14.9997C28.3333 10.3997 24.5999 6.66634 19.9999 6.66634C15.3999 6.66634 11.6666 10.3997 11.6666 14.9997ZM19.9999 19.1663C17.6987 19.1663 15.8333 17.3009 15.8333 14.9997C15.8333 12.6985 17.6987 10.833 19.9999 10.833C22.3011 10.833 24.1666 12.6985 24.1666 14.9997C24.1666 17.3009 22.3011 19.1663 19.9999 19.1663Z" fill="#3BB143"/>
</svg>
