<svg width="77" height="77" viewBox="0 0 77 77" fill="none" xmlns="http://www.w3.org/2000/svg">
<circle cx="38.5" cy="38.5" r="38.5" fill="#3BB143"/>
<path d="M60.111 38.5C60.111 49.633 51.0859 58.658 39.9529 58.658C35.9862 58.658 32.287 57.5122 29.1683 55.5335L19.7949 58.658L22.9194 49.2846C20.9407 46.166 19.7949 42.4668 19.7949 38.5C19.7949 27.367 28.82 18.342 39.9529 18.342C51.0859 18.342 60.111 27.367 60.111 38.5Z" fill="white"/>
<path d="M29.1683 55.5335L29.7041 54.6892C29.4502 54.5281 29.1373 54.4898 28.8521 54.5849L29.1683 55.5335ZM19.7949 58.658L18.8462 58.3418C18.7265 58.7011 18.82 59.0973 19.0878 59.3651C19.3556 59.633 19.7518 59.7265 20.1111 59.6067L19.7949 58.658ZM22.9194 49.2846L23.8681 49.6008C23.9631 49.3156 23.9248 49.0027 23.7638 48.7489L22.9194 49.2846ZM39.9529 59.658C51.6382 59.658 61.111 50.1852 61.111 38.5H59.111C59.111 49.0807 50.5336 57.658 39.9529 57.658V59.658ZM28.6326 56.3779C31.9067 58.4552 35.7909 59.658 39.9529 59.658V57.658C36.1814 57.658 32.6673 56.5692 29.7041 54.6892L28.6326 56.3779ZM28.8521 54.5849L19.4787 57.7093L20.1111 59.6067L29.4846 56.4822L28.8521 54.5849ZM20.7436 58.9742L23.8681 49.6008L21.9707 48.9684L18.8462 58.3418L20.7436 58.9742ZM18.7949 38.5C18.7949 42.662 19.9977 46.5462 22.075 49.8203L23.7638 48.7489C21.8837 45.7857 20.7949 42.2715 20.7949 38.5H18.7949ZM39.9529 17.342C28.2677 17.342 18.7949 26.8147 18.7949 38.5H20.7949C20.7949 27.9193 29.3723 19.342 39.9529 19.342V17.342ZM61.111 38.5C61.111 26.8147 51.6382 17.342 39.9529 17.342V19.342C50.5336 19.342 59.111 27.9193 59.111 38.5H61.111Z" fill="white"/>
</svg>
