<svg width="14" height="14" viewBox="0 0 14 14" fill="none" xmlns="http://www.w3.org/2000/svg">
<path d="M5.51827 7.77468C5.32301 7.96994 5.32301 8.28652 5.51827 8.48178C5.71353 8.67705 6.03012 8.67705 6.22538 8.48178L5.51827 7.77468ZM9.45615 5.25101C9.65141 5.05575 9.65141 4.73917 9.45615 4.54391C9.26089 4.34865 8.9443 4.34865 8.74904 4.54391L9.45615 5.25101ZM6.22538 8.48178L9.45615 5.25101L8.74904 4.54391L5.51827 7.77468L6.22538 8.48178Z" fill="white"/>
<path d="M8.15335 12.845L7.70614 13.0686L8.15335 12.845ZM9.38683 12.7429L8.90894 12.5959L9.38683 12.7429ZM5.6218 8.08006L5.3982 8.52728L5.6218 8.08006ZM5.91994 8.37821L6.36716 8.1546L5.91994 8.37821ZM1.25707 4.61318L1.40411 5.09107L1.25707 4.61318ZM1.15498 5.84665L0.931376 6.29387L1.15498 5.84665ZM11.7965 1.37029L11.9435 1.84818L11.7965 1.37029ZM12.6297 2.20353L13.1076 2.35057L12.6297 2.20353ZM11.6494 0.892399L1.11002 4.13529L1.40411 5.09107L11.9435 1.84818L11.6494 0.892399ZM0.931376 6.29387L5.3982 8.52728L5.84541 7.63285L1.37859 5.39944L0.931376 6.29387ZM5.47273 8.60181L7.70614 13.0686L8.60057 12.6214L6.36716 8.1546L5.47273 8.60181ZM9.86472 12.89L13.1076 2.35057L12.1518 2.05649L8.90894 12.5959L9.86472 12.89ZM7.70614 13.0686C8.17684 14.01 9.55518 13.896 9.86472 12.89L8.90894 12.5959C8.86472 12.7396 8.66781 12.7559 8.60057 12.6214L7.70614 13.0686ZM5.3982 8.52728C5.43045 8.54341 5.4566 8.56956 5.47273 8.60181L6.36716 8.1546C6.25427 7.92882 6.07119 7.74574 5.84541 7.63285L5.3982 8.52728ZM1.11002 4.13529C0.104046 4.44483 -0.0100249 5.82317 0.931376 6.29387L1.37859 5.39944C1.2441 5.3322 1.2604 5.13529 1.40411 5.09107L1.11002 4.13529ZM11.9435 1.84818C12.0714 1.80883 12.1912 1.92861 12.1518 2.05649L13.1076 2.35057C13.383 1.45542 12.5446 0.616967 11.6494 0.892399L11.9435 1.84818Z" fill="white"/>
</svg>
