<svg width="1199" height="758" viewBox="0 0 1199 758" fill="none" xmlns="http://www.w3.org/2000/svg">
<path d="M1170.46 262.55C1156.83 213.455 1065.97 266.858 1065.97 266.858L1089.75 223.714C1092.57 219.441 1095.11 214.908 1097.28 210.047C1109.21 183.337 1109.05 154.776 1097.21 129.883C1093.95 114.78 1084.08 93.1909 1056.87 69.5256C1005.38 24.7725 832.734 -5.84714 782.762 0.951458C732.791 7.75005 828.202 28.7859 828.202 28.7859L820.643 28.7167C675.071 13.2685 528.616 11.2791 383.303 14.2892C346.858 15.0503 310.309 16.244 274.643 22.4025C264.386 24.167 253.333 26.883 247.227 35.1693C220.105 71.9648 331.066 75.5457 348.467 74.8364C272.256 84.7489 187.569 87.7762 116.686 117.237C106.792 121.354 97.0017 126.215 89.5467 133.827C82.0916 141.438 77.2484 152.216 78.9262 163.062C83.804 194.547 127.168 203.871 151.764 210.86C151.764 210.86 10.4124 304.864 27.0695 352.575C33.9538 372.297 44.2283 393.056 63.2378 413.503C52.3925 427.118 42.8445 441.407 35.4759 456.509C30.9614 465.747 25.0458 478.41 30.0965 489.032C55.8173 543.23 446.265 729.249 759.135 676.157C842.247 662.059 925.031 638.739 997.886 597.481C1070.4 556.43 1144.29 488.634 1162.55 403.124C1163.16 400.304 1163.59 397.571 1163.9 394.924C1175.23 355.516 1181.86 303.619 1170.46 262.55Z" fill="#92E3A9"/>
<path opacity="0.8" d="M1170.46 262.55C1156.83 213.455 1065.97 266.858 1065.97 266.858L1089.75 223.714C1092.57 219.441 1095.11 214.908 1097.28 210.047C1109.21 183.337 1109.05 154.776 1097.21 129.883C1093.95 114.78 1084.08 93.1909 1056.87 69.5256C1005.38 24.7725 832.734 -5.84714 782.762 0.951458C732.791 7.75005 828.202 28.7859 828.202 28.7859L820.643 28.7167C675.071 13.2685 528.616 11.2791 383.303 14.2892C346.858 15.0503 310.309 16.244 274.643 22.4025C264.386 24.167 253.333 26.883 247.227 35.1693C220.105 71.9648 331.066 75.5457 348.467 74.8364C272.256 84.7489 187.569 87.7762 116.686 117.237C106.792 121.354 97.0017 126.215 89.5467 133.827C82.0916 141.438 79.1857 152.095 78.9262 163.062C78.2344 192.091 124.867 202.868 151.764 210.86C151.764 210.86 10.4124 304.864 27.0695 352.575C33.9538 372.297 44.2283 393.056 63.2378 413.503C52.3925 427.118 42.8445 441.407 35.4759 456.509C30.9614 465.747 25.0458 478.41 30.0965 489.032C55.8173 543.23 446.265 729.249 759.135 676.157C842.247 662.059 925.031 638.739 997.886 597.481C1070.4 556.43 1144.29 488.634 1162.55 403.124C1163.16 400.304 1163.59 397.571 1163.9 394.924C1175.23 355.516 1181.86 303.619 1170.46 262.55Z" fill="white"/>
<path d="M917.523 208.905C917.523 208.905 919.288 203.612 928.109 201.847C936.931 200.083 947.517 209.788 947.517 209.788C947.517 209.788 954.574 195.671 961.631 194.789C968.688 193.907 976.628 200.083 976.628 200.083" stroke="#263238" stroke-miterlimit="10"/>
<path d="M894.57 242.449C894.57 242.449 896.335 237.155 905.156 235.391C913.978 233.626 924.564 243.331 924.564 243.331C924.564 243.331 931.621 229.215 938.678 228.332C945.735 227.45 953.674 233.626 953.674 233.626" stroke="#263238" stroke-miterlimit="10"/>
<path d="M978.41 242.656C978.41 242.656 979.759 238.625 986.471 237.276C993.182 235.927 1001.24 243.331 1001.24 243.331C1001.24 243.331 1006.62 232.588 1011.98 231.913C1017.36 231.239 1023.4 235.944 1023.4 235.944" stroke="#263238" stroke-miterlimit="10"/>
<path d="M1076.48 278.189C1076.48 278.189 1077.37 275.542 1081.78 274.66C1086.19 273.777 1091.46 278.621 1091.46 278.621C1091.46 278.621 1094.99 271.563 1098.52 271.131C1102.05 270.698 1106.01 273.777 1106.01 273.777" stroke="#263238" stroke-miterlimit="10"/>
<path d="M606.487 199.547C597.372 158.565 550.133 128.032 508.984 133.879C498.726 135.332 488.746 139.172 481.031 146.265C470.515 155.935 473.006 166.92 467.816 178.909C466.363 182.23 463.561 185.188 459.981 185.811C449.741 187.558 441.49 177.352 431.129 177.282C423.38 177.231 413.469 181.503 409.145 188.198C405.114 194.426 407.917 205.307 400.686 209.442C392.591 214.078 382.732 205.273 373.962 208.456C363.082 212.417 368.029 220.323 364.068 225.288C360.107 230.235 352.203 228.263 341.305 227.26C330.426 226.274 321.518 239.127 321.518 239.127H664.882C664.882 239.127 667.857 234.18 654.988 214.389C642.119 194.599 624.32 208.456 616.398 208.456C608.476 208.456 606.487 199.564 606.487 199.547Z" stroke="#263238" stroke-miterlimit="10"/>
<path d="M702.107 133.74C698.44 117.306 679.5 105.041 662.981 107.394C658.864 107.982 654.869 109.521 651.772 112.358C647.552 116.233 648.555 120.645 646.462 125.454C645.874 126.786 644.75 127.98 643.314 128.222C639.215 128.931 635.894 124.831 631.742 124.797C628.629 124.779 624.651 126.492 622.921 129.173C621.312 131.682 622.437 136.041 619.531 137.702C616.279 139.553 612.335 136.024 608.806 137.304C604.448 138.895 606.419 142.061 604.828 144.051C603.237 146.04 600.071 145.244 595.695 144.846C591.336 144.449 587.756 149.604 587.756 149.604H725.51C725.51 149.604 726.703 147.614 721.532 139.674C716.377 131.734 709.233 137.287 706.051 137.287C702.903 137.321 702.124 133.74 702.107 133.74Z" stroke="#263238" stroke-miterlimit="10"/>
<path d="M996.002 335.207C992.335 318.773 973.394 306.508 956.875 308.86C952.759 309.448 948.763 310.988 945.667 313.825C941.446 317.7 942.45 322.112 940.357 326.921C939.769 328.253 938.644 329.446 937.209 329.689C933.109 330.398 929.788 326.298 925.637 326.263C922.523 326.246 918.545 327.959 916.815 330.64C915.207 333.148 916.331 337.508 913.425 339.169C910.173 341.02 906.212 337.491 902.701 338.771C898.342 340.362 900.314 343.528 898.723 345.517C897.131 347.507 893.966 346.711 889.59 346.313C885.231 345.915 881.65 351.07 881.65 351.07H1019.4C1019.4 351.07 1020.6 349.081 1015.43 341.141C1010.27 333.2 1003.13 338.753 999.945 338.753C996.797 338.771 996.002 335.207 996.002 335.207Z" stroke="#263238" stroke-miterlimit="10"/>
<path d="M775.031 317.216C769.427 292.028 740.402 273.276 715.114 276.857C708.818 277.756 702.677 280.109 697.938 284.468C691.486 290.419 693.008 297.166 689.808 304.518C688.926 306.56 687.197 308.376 684.983 308.757C678.686 309.829 673.618 303.567 667.253 303.515C662.496 303.48 656.408 306.11 653.744 310.227C651.271 314.05 653 320.745 648.538 323.288C643.556 326.125 637.502 320.728 632.123 322.682C625.429 325.122 628.473 329.983 626.034 333.027C623.595 336.072 618.735 334.844 612.041 334.238C605.347 333.633 599.881 341.539 599.881 341.539H810.871C810.871 341.539 812.687 338.494 804.782 326.333C796.877 314.171 785.928 322.682 781.068 322.682C776.259 322.682 775.031 317.216 775.031 317.216Z" stroke="#263238" stroke-miterlimit="10"/>
<path d="M824.657 607.306C824.657 607.306 812.047 594.246 815.593 594.626C819.139 595.024 825.764 604.798 825.764 604.798C825.764 604.798 825.85 583.261 828.998 587.983C832.147 592.706 828.272 604.902 828.272 604.902C828.272 604.902 837.266 590.872 837.249 593.156C837.18 600.248 830.313 605.801 830.313 605.801C830.313 605.801 844.722 595.128 842.352 599.453C839.999 603.777 830.78 607.877 830.78 607.877C830.78 607.877 847.385 604.521 841.487 606.891C835.589 609.244 829.967 610.87 829.967 610.87H825.383C825.383 610.87 809.712 602.999 815.611 604.175C821.509 605.352 824.657 607.306 824.657 607.306Z" fill="#263238"/>
<path d="M991.209 566.428C991.209 566.428 981.402 556.257 984.152 556.568C986.902 556.879 992.057 564.474 992.057 564.474C992.057 564.474 992.126 547.711 994.582 551.378C997.038 555.046 994.029 564.543 994.029 564.543C994.029 564.543 1001.03 553.627 1001.02 555.409C1000.96 560.927 995.62 565.252 995.62 565.252C995.62 565.252 1006.83 556.948 1005 560.322C1003.16 563.695 995.983 566.878 995.983 566.878C995.983 566.878 1008.9 564.266 1004.32 566.1C999.737 567.933 995.361 569.196 995.361 569.196H991.797C991.797 569.196 979.603 563.072 984.187 563.989C988.753 564.889 991.209 566.428 991.209 566.428Z" fill="#263238"/>
<path d="M1145.83 529.944C1145.83 529.944 1136.02 519.772 1138.77 520.084C1141.52 520.395 1146.68 527.99 1146.68 527.99C1146.68 527.99 1146.75 511.227 1149.2 514.894C1151.66 518.561 1148.65 528.059 1148.65 528.059C1148.65 528.059 1155.65 517.143 1155.64 518.925C1155.58 524.443 1150.24 528.768 1150.24 528.768C1150.24 528.768 1161.45 520.464 1159.61 523.838C1157.78 527.211 1150.6 530.394 1150.6 530.394C1150.6 530.394 1163.52 527.782 1158.94 529.616C1154.36 531.449 1149.98 532.712 1149.98 532.712H1146.42C1146.42 532.712 1134.22 526.588 1138.81 527.505C1143.39 528.405 1145.83 529.944 1145.83 529.944Z" fill="#263238"/>
<path d="M948.764 613.275C948.764 613.275 937.036 601.131 940.323 601.494C943.609 601.857 949.767 610.939 949.767 610.939C949.767 610.939 949.853 590.907 952.777 595.301C955.7 599.695 952.102 611.026 952.102 611.026C952.102 611.026 960.456 597.982 960.439 600.11C960.387 606.701 954.005 611.856 954.005 611.856C954.005 611.856 967.393 601.944 965.196 605.957C962.999 609.988 954.437 613.776 954.437 613.776C954.437 613.776 969.866 610.662 964.383 612.859C958.9 615.056 953.676 616.562 953.676 616.562H949.404C949.404 616.562 934.822 609.244 940.305 610.351C945.84 611.441 948.764 613.275 948.764 613.275Z" fill="#92E3A9"/>
<path d="M716.757 560.564L613.044 444.261L590.316 462.443L476.605 291.198L377.613 313.272L348.018 257.966L319.236 256.444L264.715 148.912L183.177 223.316L143.843 209.286L0.623047 355.343" stroke="#263238" stroke-miterlimit="10"/>
<path d="M736.216 582.378L725.336 570.182" stroke="#263238" stroke-miterlimit="10"/>
<path d="M324.458 327.492L315.879 329.81" stroke="#263238" stroke-miterlimit="10"/>
<path d="M377.406 313.151L334.111 324.879" stroke="#263238" stroke-miterlimit="10"/>
<path d="M214.053 263.363L238.303 227.571L236.66 215.289L264.491 158.807" stroke="#263238" stroke-miterlimit="10"/>
<path d="M203.934 278.327L210.005 269.349" stroke="#263238" stroke-miterlimit="10"/>
<path d="M166.295 299.501L126.979 352.818" stroke="#263238" stroke-miterlimit="10"/>
<path d="M145.814 215.289L155.639 237.397L177.728 255.406L175.271 287.323L169.927 294.588" stroke="#263238" stroke-miterlimit="10"/>
<path d="M348.018 257.966L327.521 277.497L320.152 265.214" stroke="#263238" stroke-miterlimit="10"/>
<path d="M1175.34 476.767L1016.17 364.495L967.86 432.705L908.168 412.811L815.801 542.14L756.109 529.356L726.271 554.942" stroke="#263238" stroke-miterlimit="10"/>
<path d="M1016.17 364.495L997.247 447.687L974.934 437.912" stroke="#263238" stroke-miterlimit="10"/>
<path d="M908.686 417.69L861.95 553.696L829.881 548.126" stroke="#263238" stroke-miterlimit="10"/>
<path d="M906.524 407.968C865.097 407.968 831.523 441.32 831.523 482.458C831.523 501.539 838.736 518.925 850.619 532.107C856.051 531.328 865.945 530.775 876.894 534.494C891.389 539.424 900.418 547.503 902.407 549.389H909.135C911.107 547.503 920.154 539.424 934.649 534.494C946.566 530.446 957.239 531.449 962.255 532.314C974.242 519.115 981.541 501.626 981.541 482.458C981.524 441.32 947.95 407.968 906.524 407.968Z" fill="#92E3A9"/>
<path d="M941.429 512.351C939.128 513.458 936.828 514.617 934.579 515.828C932.313 517.056 930.099 518.406 928.024 519.876C927.245 520.412 926.467 520.983 925.706 521.537L937.987 498.65L921.122 525.049C919.41 526.415 917.732 527.834 916.089 529.252C913.373 531.622 910.727 534.044 908.132 536.535L907.284 511.711L924.927 484.845L907.163 507.94L906.402 485.71L905.139 510.586L903.877 535.515C901.628 533.387 899.328 531.294 896.975 529.252C895.125 527.644 893.239 526.069 891.319 524.53L875.371 497.283L887.081 521.312C886.407 520.828 885.732 520.326 885.058 519.859C882.982 518.388 880.768 517.056 878.502 515.811C876.253 514.6 873.953 513.458 871.652 512.334C867.034 510.119 862.329 508.044 857.469 506.331C862.191 508.338 866.723 510.673 871.151 513.147C873.365 514.392 875.544 515.672 877.689 517.004C879.799 518.337 881.84 519.755 883.76 521.312C887.652 524.391 891.267 527.747 894.761 531.207C897.823 534.235 900.781 537.383 903.617 540.549L902.009 572.189H909.395L908.357 541.846C911.522 538.213 914.895 534.65 918.354 531.207C921.849 527.747 925.481 524.374 929.355 521.312C931.293 519.755 933.316 518.337 935.427 517.004C937.572 515.672 939.751 514.392 941.965 513.147C946.393 510.673 950.925 508.32 955.647 506.331C950.769 508.061 946.047 510.137 941.429 512.351Z" fill="#263238"/>
<path d="M330.721 510.189C330.721 531.588 318.716 533.214 303.91 533.214C289.104 533.214 277.1 531.605 277.1 510.189C277.1 488.79 289.104 444.036 303.91 444.036C318.716 444.054 330.721 488.79 330.721 510.189Z" fill="#92E3A9"/>
<path d="M312.974 519.911L308.546 520.205L320.1 512.42L311.85 516.589L312.974 513.337L309.203 517.921L304.775 520.17L304.429 504.791L306.782 499.1L304.377 502.3L304.17 493.391L311.521 483.6L304.118 491.177L303.668 471.559L303.27 484.101L298.566 478.86L303.201 486.523L302.578 506.4L298.479 503.719L294.726 497.093L296.23 502.266L288.896 497.456L302.492 509.185L300.434 574.455H306.021L304.844 522.713L306.142 521.831L312.974 519.911Z" fill="#263238"/>
<path d="M1051.68 436.477C1051.68 478.306 1028.23 481.455 999.305 481.455C970.384 481.455 946.93 478.289 946.93 436.477C946.93 394.664 970.367 307.234 999.305 307.234C1028.24 307.234 1051.68 394.664 1051.68 436.477Z" fill="#92E3A9"/>
<path opacity="0.31" d="M1051.68 436.477C1051.68 478.306 1028.23 481.455 999.305 481.455C970.384 481.455 946.93 478.289 946.93 436.477C946.93 394.664 970.367 307.234 999.305 307.234C1028.24 307.234 1051.68 394.664 1051.68 436.477Z" fill="white"/>
<path d="M1017.02 455.454L1008.35 456.059L1030.91 440.836L1014.8 448.984L1017.02 442.618L1009.65 451.596L1001 455.956L1000.31 425.924L1004.89 414.818L1000.2 421.063L999.806 403.643L1014.16 384.51L999.702 399.318L998.837 360.983L998.059 385.513L988.857 375.237L997.903 390.219L996.675 429.09L988.667 423.848L981.367 410.891L984.29 420.977L969.951 411.6L996.519 434.505L992.489 562.052H1003.42L1001.12 460.938L1003.65 459.225L1017.02 455.454Z" fill="#263238"/>
<path d="M1163.8 452.945C1163.8 474.345 1151.8 475.971 1136.99 475.971C1122.18 475.971 1110.18 474.362 1110.18 452.945C1110.18 431.546 1122.18 386.793 1136.99 386.793C1151.8 386.793 1163.8 431.546 1163.8 452.945Z" fill="#92E3A9"/>
<path opacity="0.5" d="M1163.8 452.945C1163.8 474.345 1151.8 475.971 1136.99 475.971C1122.18 475.971 1110.18 474.362 1110.18 452.945C1110.18 431.546 1122.18 386.793 1136.99 386.793C1151.8 386.793 1163.8 431.546 1163.8 452.945Z" fill="white"/>
<path d="M1146.05 462.65L1141.63 462.962L1153.16 455.177L1144.91 459.346L1146.05 456.077L1142.28 460.678L1137.86 462.91L1137.51 447.548L1139.84 441.857L1137.46 445.057L1137.25 436.148L1144.6 426.339L1137.2 433.916L1136.75 414.299L1136.35 426.858L1131.65 421.599L1136.28 429.263L1135.66 449.157L1131.54 446.476L1127.81 439.85L1129.31 445.005L1121.98 440.213L1135.55 451.942L1133.51 517.212H1139.1L1137.92 465.453L1139.2 464.588L1146.05 462.65Z" fill="#263238"/>
<path d="M71.1952 434.851C71.1952 456.25 59.191 457.876 44.3847 457.876C29.5784 457.876 17.5742 456.267 17.5742 434.851C17.5742 413.451 29.5784 368.698 44.3847 368.698C59.191 368.698 71.1952 413.434 71.1952 434.851Z" fill="#92E3A9"/>
<path opacity="0.5" d="M71.1952 434.851C71.1952 456.25 59.191 457.876 44.3847 457.876C29.5784 457.876 17.5742 456.267 17.5742 434.851C17.5742 413.451 29.5784 368.698 44.3847 368.698C59.191 368.698 71.1952 413.434 71.1952 434.851Z" fill="white"/>
<path d="M53.4486 444.555L49.0206 444.867L60.5578 437.082L52.307 441.251L53.4486 437.982L49.6779 442.583L45.2498 444.815L44.9039 429.436L47.239 423.762L44.852 426.962L44.6444 418.036L51.9957 408.244L44.5925 415.821L44.1428 396.204L43.745 408.763L39.0402 403.504L43.6758 411.168L43.0531 431.062L38.9364 428.381L35.2002 421.755L36.7051 426.91L29.3711 422.118L42.9493 433.83L40.9083 499.1H46.4952L45.319 447.358L46.599 446.493L53.4486 444.555Z" fill="#263238"/>
<path d="M204.02 386.309C162.593 386.309 129.02 419.662 129.02 460.799C129.02 479.88 136.232 497.266 148.116 510.448C153.547 509.67 163.441 509.116 174.39 512.835C188.885 517.766 197.914 525.844 199.903 527.73H206.632C208.603 525.844 217.65 517.766 232.145 512.835C244.063 508.787 254.735 509.791 259.751 510.656C271.738 497.456 279.037 479.967 279.037 460.799C279.02 419.662 245.446 386.309 204.02 386.309Z" fill="#92E3A9"/>
<path opacity="0.33" d="M204.02 386.309C162.593 386.309 129.02 419.662 129.02 460.799C129.02 479.88 136.232 497.266 148.116 510.448C153.547 509.67 163.441 509.116 174.39 512.835C188.885 517.766 197.914 525.844 199.903 527.73H206.632C208.603 525.844 217.65 517.766 232.145 512.835C244.063 508.787 254.735 509.791 259.751 510.656C271.738 497.456 279.037 479.967 279.037 460.799C279.02 419.662 245.446 386.309 204.02 386.309Z" fill="white"/>
<path d="M238.925 490.675C236.624 491.8 234.324 492.941 232.075 494.152C229.809 495.381 227.595 496.73 225.519 498.2C224.741 498.737 223.963 499.307 223.202 499.861L235.483 476.974L218.618 503.373C216.905 504.739 215.228 506.158 213.584 507.576C210.869 509.946 208.222 512.368 205.628 514.859L204.763 490.035L222.406 463.169L204.642 486.264L203.881 464.034L202.618 488.911L201.355 513.839C199.107 511.711 196.806 509.618 194.454 507.576C192.603 505.968 190.718 504.393 188.798 502.854L172.85 475.607L184.56 499.636C183.885 499.152 183.211 498.65 182.536 498.183C180.46 496.713 178.246 495.381 175.981 494.135C173.732 492.924 171.431 491.782 169.131 490.658C164.513 488.444 159.808 486.368 154.947 484.655C159.669 486.662 164.201 488.997 168.629 491.471C170.843 492.716 173.023 493.997 175.168 495.329C177.278 496.661 179.319 498.079 181.239 499.636C185.131 502.715 188.746 506.071 192.24 509.531C195.301 512.559 198.259 515.707 201.096 518.89L199.487 550.53H206.873L205.818 520.188C208.983 516.555 212.356 512.991 215.816 509.549C219.31 506.089 222.942 502.715 226.817 499.653C228.754 498.096 230.778 496.678 232.888 495.346C235.033 494.014 237.212 492.734 239.426 491.488C243.854 489.014 248.386 486.662 253.108 484.672C248.265 486.385 243.543 488.461 238.925 490.675Z" fill="#263238"/>
<path d="M412.242 608.604V539.961H322.92V496.021L399.529 314.448H464.894V497.11H493.21V539.961H464.894V608.604H412.242ZM367.218 497.128H412.242V372.21L367.218 497.128Z" fill="#263238"/>
<path d="M598.515 608.76C580.837 608.76 566.204 605.127 554.58 597.861C542.957 590.595 534.239 580.614 528.444 567.899C522.632 555.184 519.727 540.48 519.727 523.769V391.948C519.727 374.753 522.511 359.685 528.081 346.728C533.651 333.771 542.247 323.668 553.854 316.403C565.477 309.137 580.353 305.504 598.515 305.504C616.435 305.504 631.137 309.137 642.64 316.403C654.142 323.668 662.67 333.771 668.239 346.728C673.809 359.685 676.594 374.753 676.594 391.948V523.769C676.594 540.48 673.688 555.184 667.876 567.899C662.064 580.614 653.347 590.595 641.723 597.861C630.099 605.127 615.708 608.76 598.515 608.76ZM598.515 559.37C605.053 559.37 609.775 557.312 612.681 553.195C615.587 549.077 617.524 544.182 618.493 538.49C619.462 532.799 619.946 527.54 619.946 522.696V393.056C619.946 387.727 619.513 382.157 618.683 376.345C617.836 370.532 615.968 365.515 613.062 361.277C610.156 357.039 605.313 354.928 598.532 354.928C591.752 354.928 586.857 357.056 583.83 361.277C580.803 365.515 578.865 370.532 578.018 376.345C577.17 382.157 576.755 387.727 576.755 393.056V522.696C576.755 527.54 577.239 532.816 578.208 538.49C579.177 544.182 581.235 549.077 584.383 553.195C587.497 557.329 592.219 559.37 598.515 559.37Z" fill="#263238"/>
<path d="M796.41 608.604V539.961H707.088V496.021L783.697 314.448H849.062V497.11H877.378V539.961H849.062V608.604H796.41ZM751.386 497.128H796.41V372.21L751.386 497.128Z" fill="#263238"/>
<path d="M1198 466.733C1084.91 540.877 861.586 591.339 604.534 591.339C339.611 591.339 110.477 537.729 0.96875 459.848V757.983H1198V466.733Z" fill="white"/>
<path d="M1173.44 481.524C1054.4 547.503 844.098 591.339 604.534 591.339C339.611 591.339 110.477 537.729 0.96875 459.848" stroke="#263238" stroke-miterlimit="10"/>
<path d="M1198.52 466.404C1193.41 469.76 1188.1 473.064 1182.55 476.317" stroke="#263238" stroke-miterlimit="10"/>
<path d="M1125.8 449.468C1125.8 493.201 1101.27 496.505 1071.04 496.505C1040.8 496.505 1016.27 493.201 1016.27 449.468C1016.27 405.736 1040.8 314.31 1071.04 314.31C1101.27 314.31 1125.8 405.736 1125.8 449.468Z" fill="#92E3A9"/>
<path d="M1089.54 469.311L1080.5 469.933L1104.09 454.018L1087.23 462.547L1089.54 455.886L1081.85 465.263L1072.8 469.83L1072.09 438.431L1076.88 426.806L1071.97 433.345L1071.56 415.129L1086.57 395.114L1071.45 410.597L1070.53 370.515L1069.74 396.169L1060.1 385.427L1069.58 401.1L1068.29 441.736L1059.91 436.252L1052.27 422.706L1055.33 433.259L1040.35 423.45L1068.11 447.41L1063.91 580.769H1075.34L1072.92 475.037L1075.57 473.255L1089.54 469.311Z" fill="#263238"/>
<path d="M1067.34 581.946C1067.34 581.946 1047.12 560.996 1052.79 561.637C1058.46 562.259 1069.08 577.932 1069.08 577.932C1069.08 577.932 1069.24 543.403 1074.27 550.963C1079.32 558.523 1073.11 578.071 1073.11 578.071C1073.11 578.071 1087.54 555.582 1087.5 559.249C1087.4 570.615 1076.4 579.507 1076.4 579.507C1076.4 579.507 1099.49 562.398 1095.7 569.335C1091.91 576.272 1077.16 582.828 1077.16 582.828C1077.16 582.828 1103.78 577.465 1094.32 581.237C1084.86 585.025 1075.86 587.62 1075.86 587.62H1068.51C1068.51 587.62 1043.38 575.009 1052.84 576.894C1062.3 578.797 1067.34 581.946 1067.34 581.946Z" fill="#263238"/>
<path d="M98.9727 555.945C98.9727 555.945 81.4853 537.833 86.3977 538.369C91.3101 538.923 100.495 552.468 100.495 552.468C100.495 552.468 100.616 522.609 104.992 529.149C109.351 535.688 103.989 552.589 103.989 552.589C103.989 552.589 116.46 533.127 116.425 536.31C116.339 546.136 106.826 553.835 106.826 553.835C106.826 553.835 126.786 539.044 123.517 545.047C120.248 551.049 107.483 556.706 107.483 556.706C107.483 556.706 130.505 552.07 122.324 555.34C114.142 558.609 106.359 560.858 106.359 560.858H99.9759C99.9759 560.858 78.2335 549.96 86.415 551.586C94.5965 553.212 98.9727 555.945 98.9727 555.945Z" fill="#263238"/>
<path d="M162.16 425.63C162.16 469.414 137.615 472.719 107.328 472.719C77.0407 472.719 52.4961 469.414 52.4961 425.63C52.4961 381.846 77.0407 290.333 107.328 290.333C137.615 290.316 162.16 381.846 162.16 425.63Z" fill="#92E3A9"/>
<path d="M125.87 445.49L116.806 446.112L140.434 430.18L123.552 438.708L125.87 432.048L118.155 441.442L109.109 446.009L108.399 414.576L113.191 402.951L108.278 409.49L107.863 391.256L122.894 371.224L107.759 386.707L106.843 346.59L106.03 372.262L96.3953 361.519L105.874 377.21L104.594 417.88L96.205 412.396L88.5597 398.834L91.6213 409.403L76.6074 399.577L104.421 423.554L100.201 557.07H111.651L109.23 451.216L111.876 449.434L125.87 445.49Z" fill="#263238"/>
<path d="M290.383 601.459C290.383 601.459 272.896 583.347 277.808 583.883C282.72 584.437 291.905 597.982 291.905 597.982C291.905 597.982 292.026 568.124 296.403 574.663C300.761 581.202 295.399 598.103 295.399 598.103C295.399 598.103 307.87 578.642 307.836 581.825C307.749 591.651 298.236 599.349 298.236 599.349C298.236 599.349 318.197 584.558 314.928 590.561C311.659 596.564 298.893 602.22 298.893 602.22C298.893 602.22 321.916 597.584 313.734 600.854C305.553 604.123 297.769 606.372 297.769 606.372H291.404C291.404 606.372 269.661 595.474 277.843 597.1C286.024 598.726 290.383 601.459 290.383 601.459Z" fill="#263238"/>
<path d="M383.182 641.161C383.182 641.161 365.695 623.049 370.607 623.585C375.519 624.139 384.704 637.684 384.704 637.684C384.704 637.684 384.825 607.825 389.201 614.365C393.56 620.904 388.198 637.805 388.198 637.805C388.198 637.805 400.669 618.343 400.635 621.526C400.548 631.352 391.035 639.051 391.035 639.051C391.035 639.051 410.996 624.26 407.727 630.262C404.457 636.265 391.692 641.922 391.692 641.922C391.692 641.922 414.715 637.286 406.533 640.556C398.352 643.825 390.568 646.074 390.568 646.074H384.202C384.202 646.074 362.46 635.175 370.642 636.802C378.823 638.428 383.182 641.161 383.182 641.161Z" fill="#263238"/>
<path d="M632.089 614.503C632.089 614.503 619.479 601.442 623.025 601.823C626.571 602.22 633.196 611.994 633.196 611.994C633.196 611.994 633.282 590.457 636.43 595.18C639.578 599.902 635.704 612.098 635.704 612.098C635.704 612.098 644.698 598.069 644.681 600.352C644.612 607.445 637.745 612.998 637.745 612.998C637.745 612.998 652.153 602.324 649.783 606.649C647.431 610.974 638.212 615.074 638.212 615.074C638.212 615.074 654.817 611.718 648.919 614.088C643.02 616.44 637.399 618.067 637.399 618.067H632.815C632.815 618.067 617.144 610.195 623.042 611.372C628.94 612.531 632.089 614.503 632.089 614.503Z" fill="#263238"/>
<path d="M1121.65 583.226C1121.65 583.226 1111.84 573.054 1114.59 573.365C1117.34 573.677 1122.49 581.271 1122.49 581.271C1122.49 581.271 1122.56 564.508 1125.02 568.176C1127.48 571.843 1124.47 581.34 1124.47 581.34C1124.47 581.34 1131.47 570.424 1131.45 572.206C1131.4 577.725 1126.06 582.05 1126.06 582.05C1126.06 582.05 1137.27 573.746 1135.43 577.119C1133.6 580.493 1126.42 583.676 1126.42 583.676C1126.42 583.676 1139.34 581.064 1134.76 582.897C1130.17 584.731 1125.8 585.994 1125.8 585.994H1122.23C1122.23 585.994 1110.04 579.87 1114.62 580.787C1119.21 581.704 1121.65 583.226 1121.65 583.226Z" fill="#263238"/>
<path d="M460.778 614.572C460.778 614.572 443.29 596.46 448.203 596.996C453.115 597.55 462.3 611.095 462.3 611.095C462.3 611.095 462.421 581.237 466.797 587.776C471.156 594.315 465.794 611.216 465.794 611.216C465.794 611.216 478.265 591.754 478.23 594.938C478.144 604.763 468.63 612.462 468.63 612.462C468.63 612.462 488.591 597.671 485.322 603.674C482.053 609.676 469.288 615.333 469.288 615.333C469.288 615.333 492.31 610.697 484.129 613.967C475.947 617.236 468.163 619.485 468.163 619.485H461.798C461.798 619.485 440.056 608.587 448.237 610.213C456.419 611.839 460.778 614.572 460.778 614.572Z" fill="#92E3A9"/>
<path d="M334.613 602.532C334.613 602.532 322.886 590.388 326.172 590.751C329.459 591.114 335.616 600.196 335.616 600.196C335.616 600.196 335.703 580.164 338.626 584.558C341.549 588.952 337.952 600.283 337.952 600.283C337.952 600.283 346.306 587.239 346.289 589.367C346.237 595.958 339.854 601.113 339.854 601.113C339.854 601.113 353.242 591.201 351.045 595.214C348.849 599.245 340.287 603.034 340.287 603.034C340.287 603.034 355.716 599.92 350.232 602.117C344.749 604.314 339.526 605.819 339.526 605.819H335.253C335.253 605.819 320.672 598.501 326.155 599.608C331.69 600.698 334.613 602.532 334.613 602.532Z" fill="#92E3A9"/>
<path d="M188.105 650.52C188.105 650.52 176.378 638.376 179.664 638.739C182.951 639.102 189.109 648.185 189.109 648.185C189.109 648.185 189.195 628.152 192.118 632.546C195.041 636.94 191.444 648.271 191.444 648.271C191.444 648.271 199.798 635.227 199.781 637.355C199.729 643.946 193.346 649.101 193.346 649.101C193.346 649.101 206.734 639.189 204.538 643.202C202.341 647.233 193.779 651.022 193.779 651.022C193.779 651.022 209.208 647.908 203.725 650.105C198.241 652.302 193.018 653.807 193.018 653.807H188.745C188.745 653.807 174.164 646.489 179.647 647.596C185.182 648.686 188.105 650.52 188.105 650.52Z" fill="#92E3A9"/>
<path d="M580.351 652.873C580.351 652.873 568.624 640.729 571.91 641.092C575.197 641.455 581.355 650.537 581.355 650.537C581.355 650.537 581.441 630.505 584.364 634.899C587.288 639.293 583.69 650.624 583.69 650.624C583.69 650.624 592.044 637.58 592.027 639.708C591.975 646.299 585.592 651.454 585.592 651.454C585.592 651.454 598.98 641.542 596.784 645.555C594.587 649.586 586.025 653.374 586.025 653.374C586.025 653.374 601.454 650.26 595.971 652.457C590.488 654.654 585.264 656.159 585.264 656.159H580.991C580.991 656.159 566.41 648.842 571.893 649.949C577.428 651.056 580.351 652.873 580.351 652.873Z" fill="#92E3A9"/>
<path d="M770.568 653.513C770.568 653.513 758.841 641.369 762.127 641.732C765.414 642.095 771.571 651.177 771.571 651.177C771.571 651.177 771.658 631.145 774.581 635.539C777.504 639.933 773.907 651.264 773.907 651.264C773.907 651.264 782.261 638.22 782.244 640.348C782.192 646.939 775.809 652.094 775.809 652.094C775.809 652.094 789.197 642.182 787 646.195C784.804 650.226 776.242 654.014 776.242 654.014C776.242 654.014 791.671 650.901 786.187 653.098C780.704 655.295 775.481 656.8 775.481 656.8H771.208C771.208 656.8 756.627 649.482 762.11 650.589C767.645 651.679 770.568 653.513 770.568 653.513Z" fill="#92E3A9"/>
<path d="M1124.24 615.506C1124.24 615.506 1106.39 597.013 1111.41 597.567C1116.42 598.121 1125.8 611.96 1125.8 611.96C1125.8 611.96 1125.94 581.461 1130.38 588.156C1134.83 594.834 1129.36 612.098 1129.36 612.098C1129.36 612.098 1142.09 592.239 1142.06 595.474C1141.97 605.507 1132.25 613.361 1132.25 613.361C1132.25 613.361 1152.64 598.259 1149.3 604.383C1145.97 610.507 1132.92 616.302 1132.92 616.302C1132.92 616.302 1156.43 611.562 1148.08 614.901C1139.72 618.24 1131.78 620.54 1131.78 620.54H1125.3C1125.3 620.54 1103.1 609.4 1111.46 611.078C1119.8 612.721 1124.24 615.506 1124.24 615.506Z" fill="#92E3A9"/>
<path d="M60.5926 615.506C60.5926 615.506 42.742 597.013 47.7582 597.567C52.7743 598.121 62.1493 611.96 62.1493 611.96C62.1493 611.96 62.2877 581.461 66.7331 588.156C71.1784 594.834 65.7125 612.098 65.7125 612.098C65.7125 612.098 78.4432 592.239 78.4086 595.474C78.3221 605.507 68.6012 613.361 68.6012 613.361C68.6012 613.361 88.9944 598.259 85.6561 604.383C82.3178 610.507 69.2757 616.302 69.2757 616.302C69.2757 616.302 92.7825 611.562 84.428 614.901C76.0735 618.24 68.1341 620.54 68.1341 620.54H61.6477C61.6477 620.54 39.4556 609.4 47.81 611.078C56.13 612.721 60.5926 615.506 60.5926 615.506Z" fill="#92E3A9"/>
<path d="M148.651 589.384C148.651 589.384 130.385 557.883 135.592 555.443C140.798 553.004 151.574 576.981 151.574 576.981C151.574 576.981 149.481 531.813 154.359 535.982C159.22 540.151 163.734 572.12 163.734 572.12C163.734 572.12 173.455 537.383 176.586 544.666C179.717 551.966 174.095 574.04 174.095 574.04C174.095 574.04 188.054 547.451 189.455 556.135C190.839 564.82 182.847 579.057 182.847 579.057C182.847 579.057 201.252 560.65 202.653 567.933C204.036 575.234 197.792 582.517 197.792 582.517C197.792 582.517 222.112 569.317 216.196 576.618C210.298 583.918 201.615 593.294 201.615 593.294C201.615 593.294 224.897 584.956 222.112 589.817C219.327 594.678 208.914 599.885 208.914 599.885C208.914 599.885 228.027 596.408 225.934 599.539C223.841 602.67 218.998 605.732 218.998 605.732H132.461C132.461 605.732 109.542 597.446 118.571 596.754C127.6 596.062 135.938 599.885 135.938 599.885C135.938 599.885 107.795 580.769 120.993 579.386C134.191 578.002 144.967 594.678 144.967 594.678C144.967 594.678 126.217 568.279 132.807 572.449L148.651 589.384Z" fill="#92E3A9"/>
<path d="M149.827 598.345C149.827 598.345 126.234 573.902 132.859 574.645C139.484 575.389 151.869 593.657 151.869 593.657C151.869 593.657 152.042 553.367 157.923 562.19C163.804 571.013 156.573 593.813 156.573 593.813C156.573 593.813 173.403 567.57 173.352 571.86C173.23 585.129 160.396 595.491 160.396 595.491C160.396 595.491 187.328 575.528 182.917 583.624C178.506 591.72 161.278 599.366 161.278 599.366C161.278 599.366 192.326 593.104 181.291 597.515C170.255 601.926 159.756 604.954 159.756 604.954H151.177C151.177 604.954 121.858 590.232 132.894 592.446C143.946 594.678 149.827 598.345 149.827 598.345Z" fill="#263238" stroke="#263238" stroke-miterlimit="10"/>
<path d="M926.588 644.828C926.588 644.828 892.063 585.267 901.905 580.683C911.747 576.081 932.106 621.388 932.106 621.388C932.106 621.388 928.162 536.016 937.364 543.905C946.549 551.793 955.093 612.202 955.093 612.202C955.093 612.202 973.48 546.534 979.379 560.322C985.294 574.109 974.656 615.835 974.656 615.835C974.656 615.835 1001.05 565.581 1003.68 581.98C1006.31 598.397 991.21 625.315 991.21 625.315C991.21 625.315 1026.01 590.509 1028.64 604.296C1031.27 618.084 1019.46 631.871 1019.46 631.871C1019.46 631.871 1065.41 606.926 1054.26 620.713C1043.1 634.501 1026.69 652.233 1026.69 652.233C1026.69 652.233 1070.67 636.473 1065.43 645.659C1060.17 654.845 1040.49 664.705 1040.49 664.705C1040.49 664.705 1076.61 658.132 1072.66 664.048C1068.72 669.964 1059.55 675.759 1059.55 675.759H896.041C896.041 675.759 852.712 660.104 869.784 658.789C886.856 657.474 902.614 664.705 902.614 664.705C902.614 664.705 849.426 628.584 874.385 625.955C899.328 623.326 919.686 654.845 919.686 654.845C919.686 654.845 884.227 604.936 896.698 612.825L926.588 644.828Z" fill="#92E3A9"/>
<path d="M928.82 661.764C928.82 661.764 884.245 615.576 896.751 616.959C909.257 618.343 932.677 652.89 932.677 652.89C932.677 652.89 933.006 576.739 944.128 593.415C955.25 610.109 941.585 653.201 941.585 653.201C941.585 653.201 973.377 603.587 973.308 611.7C973.083 636.767 948.815 656.367 948.815 656.367C948.815 656.367 999.738 618.655 991.383 633.947C983.046 649.24 950.493 663.702 950.493 663.702C950.493 663.702 1009.18 651.869 988.339 660.208C967.479 668.546 947.639 674.272 947.639 674.272H931.414C931.414 674.272 875.994 646.455 896.855 650.641C917.698 654.81 928.82 661.764 928.82 661.764Z" fill="#263238" stroke="#263238" stroke-miterlimit="10"/>
<path d="M208.153 591.166C208.153 591.166 211.682 587.966 214.709 587.966C217.736 587.966 226.99 592.412 226.99 592.412C226.99 592.412 230.691 598.121 231.02 598.449C231.349 598.795 235.898 600.733 236.226 601.529C236.555 602.324 237.23 604.954 237.23 604.954H208.966L203.76 591.27L208.153 591.166Z" fill="white" stroke="#263238" stroke-miterlimit="10"/>
<path d="M214.71 587.983L214.537 590.682C214.537 590.682 221.767 594.886 221.594 596.408C221.421 597.93 219.916 601.459 219.916 601.459L223.618 605.334H203.934L205.456 593.727C205.456 593.692 209.659 587.637 214.71 587.983Z" fill="#263238"/>
<path d="M171.31 589.488C171.31 589.488 185.442 568.297 188.642 567.951C191.842 567.622 198.571 570.303 201.096 574.68C203.621 579.057 205.974 587.637 206.147 588.139C206.32 588.641 206.994 588.987 210.851 595.197C214.726 601.425 214.553 604.954 214.553 604.954H159.877C159.877 604.954 161.053 599.401 163.077 596.2C165.101 593 169.805 591.824 169.805 591.824L171.31 589.488Z" fill="white" stroke="#263238" stroke-miterlimit="10"/>
<path d="M193.002 604.642C193.002 604.642 191.48 600.94 191.324 600.439C191.151 599.937 191.151 595.059 190.649 593.035C190.148 591.011 185.945 584.783 185.945 584.783L188.972 576.029L187.449 574.853L189.975 568.625L188.556 567.968C185.235 568.556 171.294 589.488 171.294 589.488L169.772 591.841C169.772 591.841 165.067 593.017 163.043 596.218C161.313 598.951 160.206 603.397 159.93 604.625H193.002V604.642Z" fill="#263238"/>
<path d="M752.995 596.442C752.995 596.442 755.209 594.436 757.111 594.436C759.014 594.436 764.809 597.221 764.809 597.221C764.809 597.221 767.126 600.802 767.334 601.009C767.542 601.217 770.396 602.445 770.603 602.947C770.811 603.449 771.243 605.092 771.243 605.092H753.531L750.262 596.512L752.995 596.442Z" fill="white" stroke="#263238" stroke-miterlimit="10"/>
<path d="M757.111 594.436L757.007 596.131C757.007 596.131 761.539 598.761 761.435 599.712C761.332 600.664 760.38 602.878 760.38 602.878L762.698 605.3H750.365L751.317 598.017C751.299 598.034 753.946 594.228 757.111 594.436Z" fill="#263238"/>
<path d="M729.903 595.387C729.903 595.387 738.759 582.101 740.766 581.877C742.772 581.669 746.992 583.347 748.566 586.098C750.141 588.848 751.628 594.228 751.732 594.54C751.836 594.851 752.251 595.059 754.69 598.968C757.111 602.878 757.007 605.092 757.007 605.092H722.725C722.725 605.092 723.468 601.615 724.731 599.608C725.994 597.602 728.952 596.858 728.952 596.858L729.903 595.387Z" fill="white" stroke="#263238" stroke-miterlimit="10"/>
<path d="M743.499 604.885C743.499 604.885 742.548 602.567 742.444 602.255C742.34 601.944 742.34 598.882 742.029 597.619C741.717 596.356 739.071 592.446 739.071 592.446L740.974 586.963L740.022 586.219L741.596 582.309L740.714 581.894C738.639 582.275 729.886 595.387 729.886 595.387L728.935 596.858C728.935 596.858 725.977 597.602 724.714 599.608C723.625 601.321 722.933 604.106 722.76 604.885H743.499Z" fill="#263238"/>
<path d="M1039.06 648.202C1039.06 648.202 1045.73 642.164 1051.46 642.164C1057.18 642.164 1074.67 650.572 1074.67 650.572C1074.67 650.572 1081.66 661.349 1082.3 661.989C1082.94 662.629 1091.52 666.297 1092.16 667.802C1092.8 669.307 1094.06 674.272 1094.06 674.272H1040.65L1030.79 648.409L1039.06 648.202Z" fill="white" stroke="#263238" stroke-miterlimit="10"/>
<path d="M1051.46 642.164L1051.15 647.25C1051.15 647.25 1064.81 655.208 1064.5 658.062C1064.19 660.917 1061.32 667.594 1061.32 667.594L1068.3 674.912H1031.1L1033.95 652.976C1033.97 652.976 1041.93 641.524 1051.46 642.164Z" fill="#263238"/>
<path d="M969.434 645.019C969.434 645.019 996.14 604.954 1002.18 604.314C1008.21 603.674 1020.94 608.76 1025.7 617.029C1030.47 625.298 1034.92 641.507 1035.23 642.476C1035.54 643.427 1036.82 644.067 1044.14 655.831C1051.46 667.594 1051.13 674.272 1051.13 674.272H947.795C947.795 674.272 950.026 663.771 953.832 657.734C957.654 651.696 966.545 649.465 966.545 649.465L969.434 645.019Z" fill="white" stroke="#263238" stroke-miterlimit="10"/>
<path d="M1010.45 673.649C1010.45 673.649 1007.59 666.66 1007.26 665.691C1006.95 664.74 1006.95 655.519 1005.98 651.696C1005.03 647.873 997.075 636.11 997.075 636.11L1002.8 619.572L999.946 617.34L1004.72 605.577L1002.06 604.331C995.795 605.455 969.435 645.001 969.435 645.001L966.58 649.447C966.58 649.447 957.672 651.679 953.867 657.716C950.598 662.889 948.505 671.279 947.969 673.614H1010.45V673.649Z" fill="#263238"/>
</svg>
