<svg 
preserveAspectRatio="none"
width="1440" height="666" viewBox="0 0 1440 666" fill="none" xmlns="http://www.w3.org/2000/svg">
<path fill-rule="evenodd" clip-rule="evenodd" d="M0 0H1440V510.277L720 666L0 510.277V0Z" fill="#2D2D2D"/>
<path opacity="0.0372024" fill-rule="evenodd" clip-rule="evenodd" d="M940.674 0L899.748 40.4937H868.451L854.005 54.7856H845.58L819.097 28.5826H776.966L752.891 52.4036V67.8865L733.632 86.9423V104.807L750.485 121.481L768.541 103.615V77.4144L784.189 61.9315V75.0324V114.334L763.725 134.581H734.835L708.353 160.784V184.604H684.28V208.423H703.539L728.818 183.413H745.669L761.319 198.894H770.949L752.891 181.031L760.115 173.885L785.392 198.894L801.042 183.413V170.312H826.319L841.968 185.795V192.94H817.893L797.43 213.187H823.913V231.051H755.299L736.04 211.996H716.781L709.557 219.142H695.113L659 254.872V292.984L683.076 316.803H732.428L744.465 328.712V341.814L754.095 351.342V409.701L766.133 421.611V447.812H792.616L822.709 418.038V391.835L837.153 377.544V343.005L872.061 308.467V296.555H846.784L825.117 275.118V256.063L815.486 246.535L822.709 239.389L835.95 252.489V266.782L852.802 283.456H881.691L894.932 270.355V257.254H876.877L860.024 240.58L867.248 233.434L881.691 247.726H915.396L940.674 272.737V288.22L963.546 310.849V285.837L986.417 263.208H998.455L1018.92 283.456V310.849L1032.16 323.949H1041.79L1027.34 309.658V292.984L1040.59 306.085L1052.62 294.175V284.646L1041.79 273.927L1051.42 264.399H1069.47L1092.34 241.77V228.67L1081.51 217.951V203.659L1089.94 195.322L1111.6 216.76L1116.42 211.996V192.94L1154.94 154.829V178.647L1151.33 182.222V201.277L1138.09 214.378H1127.25L1116.42 225.097V238.198L1133.27 221.523H1145.31L1158.55 208.423V191.749L1162.16 188.175V152.447L1135.68 126.245L1157.35 104.807H1192.26L1210.31 86.9423H1228.37L1199.48 115.526V146.491H1205.5L1219.94 132.2V107.189L1231.98 95.2792H1248.83L1268.09 76.2234V64.3135H1294.57L1303 55.9766L1275.31 28.5826H1210.31L1198.27 16.6727H1187.44L1170.59 0H940.674ZM214.273 19.3554L193.814 39.5933L210.663 56.2621H189V83.6445L219.088 113.407L207.054 125.312V132.457L240.751 99.1215H275.651L314.164 137.219V155.077L326.199 166.981V213.413L369.524 256.273H383.965V270.559L400.815 287.227H434.513L467.007 319.371L459.785 326.515V358.659L493.483 391.993V440.806L481.448 452.712V518.192L501.908 538.431H507.924V533.669L499.501 525.335V509.857L509.129 500.332V475.332L592.169 393.184V371.754L603 361.039V349.135L592.169 338.42H568.099L544.03 314.609H533.199L517.552 299.132H486.262L475.43 309.847L438.122 272.94H408.035V249.13L422.478 234.843H445.344L457.379 246.748H464.599L453.767 236.034L475.43 214.604V202.698L509.129 169.363V153.886H538.012V132.457L513.942 108.646H497.093V95.5499L486.262 84.835H470.616V149.124H459.785L452.564 141.981V131.266L417.663 96.7404L457.379 57.4526V33.6418H412.85L400.815 45.5472H353.878L337.03 28.8785H269.634L260.007 19.3554H214.273ZM685 130.971V145.399H693.459V126.162L701.916 134.577V147.804H714V135.78L704.334 126.162V111.733L685 130.971ZM1089 257.193V263.057H1093.67V257.193L1096 254.847L1093.67 252.499L1089 257.193ZM452.385 260.417L450 262.836H463.115L470.269 270.095H478.617L481 267.676H471.462L464.308 260.417H452.385ZM487.547 271.855L484 275.374H497V274.2L494.636 271.855H487.547ZM1089 276.254V296.194L1095.07 290.33L1102.36 297.369H1106L1093.86 285.637V276.254H1089ZM1093 301.516L1097.73 306.292L1094.18 309.874V311.068L1096.55 308.68L1103.64 315.844L1106 313.456V303.904L1101.27 308.68L1098.91 306.292V302.71L1095.36 299.128L1093 301.516ZM1079 304.055V305.287L1084 300.36V299.128L1079 304.055ZM1062.27 326.793H1054V338.849L1059.91 344.877H1069.36L1080 334.026V315.942L1076.45 312.325L1062.27 326.793ZM1008 318.483L1024.9 335.024V339.749L1045.43 359.834H1072L1068.38 356.289H1055.09L1049.06 350.381H1044.23V340.931L1036.98 333.843H1032.15L1016.45 318.483H1008ZM1092.14 331.68L1091 332.56H1097.86L1099 331.68H1092.14ZM1085 338.425V344.291L1087.28 346.637H1093V341.945L1090.71 339.597V332.56L1085 338.425ZM1123 336.079V339.668L1130.22 346.848H1136.24L1151.9 362.403H1159.12L1164.54 357.018L1173.57 365.992H1182L1169.96 354.027V350.436L1160.33 340.267H1139.86L1137.75 342.36H1132.63V336.079H1123ZM1107 343.118V343.997H1118L1116.78 343.118H1107ZM1080 358.954V361.152H1082.46L1086.15 363.353L1089.85 361.152H1093.54L1096 358.954H1080ZM1150.4 389.837L1137.2 376.685H1106L1083.2 399.401H1070V450.813H1094L1106 438.857H1132.4L1156.4 462.769H1172L1190 444.835V408.966L1150.4 369.511V389.837ZM848 389.521V409.846L855.126 417.02L862.249 409.846V397.89L867 393.106V370.391L848 389.521ZM1251 451.72L1256.94 457.653V471.894H1252.19L1232 492.068L1234.38 494.441H1240.31L1270 464.774V457.653H1265.25L1251 443.413V451.72ZM1166 473.326V481.244H1169.43L1174 476.72V473.326H1166Z" fill="white"/>
</svg>
