<svg width="664" height="537" viewBox="0 0 664 537" fill="none" xmlns="http://www.w3.org/2000/svg">
<path fill-rule="evenodd" clip-rule="evenodd" d="M300.943 492.37C414.073 492.37 505.911 502.321 505.911 514.574C505.911 526.826 414.066 536.777 300.943 536.777C187.82 536.777 95.9746 526.826 95.9746 514.574C95.9674 502.321 187.813 492.37 300.943 492.37Z" fill="#3BB143" fill-opacity="0.2"/>
<path fill-rule="evenodd" clip-rule="evenodd" d="M193.839 36.5465C183.69 14.9598 161.745 0 136.33 0C108.04 0 84.0406 18.5382 75.8447 44.1244C57.5438 45.2422 42.8436 59.9189 43.0251 79.0451C43.0396 80.8452 231.246 80.279 231.246 79.0451C231.355 50.1127 221.417 36.2852 198.528 36.2852C196.946 36.2852 195.378 36.3723 193.839 36.5465Z" fill="#C7E5FA" fill-opacity="0.29"/>
<path fill-rule="evenodd" clip-rule="evenodd" d="M446.04 62.7838C460.697 31.6013 492.398 10 529.102 10C569.972 10 604.628 36.7766 616.468 73.7296C642.907 75.3483 664.141 96.5431 663.879 124.169C663.85 126.775 392.001 125.955 392.001 124.169C391.842 82.3745 406.193 62.4064 439.253 62.4064C441.547 62.4064 443.811 62.5298 446.04 62.7838Z" fill="#C7E5FA" fill-opacity="0.29"/>
<path d="M21.9863 413.194C20.6723 413.194 19.3657 412.693 18.3639 411.692L14.0518 407.38L9.73973 411.692C7.73614 413.695 4.49846 413.695 2.49488 411.692C0.491291 409.688 0.491291 406.444 2.49488 404.448L6.80694 400.143L2.49488 395.832C0.491291 393.829 0.491291 390.584 2.49488 388.588C4.49846 386.585 7.73614 386.585 9.73973 388.588L14.0518 392.9L18.3639 388.588C20.3675 386.585 23.6051 386.585 25.6087 388.588C27.6123 390.591 27.6123 393.836 25.6087 395.832L21.2966 400.143L25.6087 404.455C27.6123 406.458 27.6123 409.703 25.6087 411.699C24.6142 412.693 23.3002 413.194 21.9863 413.194ZM586.874 302.792C585.56 302.792 584.254 302.292 583.252 301.29L578.94 296.978L574.635 301.29C572.631 303.293 569.394 303.293 567.39 301.29C565.387 299.287 565.387 296.049 567.39 294.046L571.695 289.734L567.39 285.423C565.387 283.42 565.387 280.175 567.39 278.179C569.394 276.176 572.631 276.176 574.635 278.179L578.94 282.49L583.252 278.179C585.255 276.176 588.493 276.176 590.497 278.179C592.5 280.182 592.5 283.42 590.497 285.423L586.192 289.734L590.497 294.046C592.5 296.049 592.5 299.294 590.497 301.29C589.495 302.292 588.181 302.792 586.874 302.792ZM73.2302 139.934C71.9163 139.934 70.6096 139.433 69.6078 138.431L65.2957 134.119L60.9836 138.431C58.98 140.434 55.7424 140.434 53.7388 138.431C51.7352 136.428 51.7352 133.183 53.7388 131.187L58.0508 126.875L53.7388 122.564C51.7352 120.561 51.7352 117.323 53.7388 115.32C55.7351 113.317 58.98 113.317 60.9836 115.32L65.2957 119.632L69.6078 115.32C71.6114 113.317 74.849 113.317 76.8526 115.32C78.8562 117.323 78.8562 120.568 76.8526 122.564L72.5406 126.875L76.8526 131.187C78.8562 133.19 78.8562 136.428 76.8526 138.431C75.8581 139.433 74.5442 139.934 73.2302 139.934Z" fill="#E5E5E5"/>
<path d="M296.107 510.778C296.107 510.778 350.378 510.778 404.381 440.849C449.861 381.968 458.086 298.728 458.086 168.496C350.371 161.818 296.107 105.042 296.107 105.042H296.1C296.1 105.042 241.829 161.811 134.129 168.496C134.129 298.735 142.347 381.968 187.834 440.849C241.836 510.778 296.1 510.778 296.107 510.778Z" fill="#3BB143" fill-opacity="0.2"/>
<path d="M296.106 515.902C293.79 515.902 238.684 515.082 183.775 443.985C150.432 400.826 135.021 344.529 130.585 249.675C130.455 246.851 132.64 244.449 135.463 244.318C138.353 244.202 140.69 246.372 140.821 249.196C145.155 341.756 159.942 396.376 191.883 437.721C243.49 504.535 295.598 505.653 296.121 505.653C296.244 505.653 312.207 505.414 334.893 494.112C337.426 492.856 340.504 493.88 341.768 496.413C343.031 498.946 342 502.024 339.466 503.287C314.429 515.757 296.839 515.902 296.106 515.902ZM404.38 445.974C403.283 445.974 402.187 445.625 401.251 444.907C399.015 443.172 398.601 439.956 400.329 437.721C444.038 381.134 452.756 300.905 452.959 173.279C361.891 166.318 309.899 124.734 296.084 112.134C281.914 124.916 227.824 167.821 134.44 173.613C131.638 173.787 129.184 171.639 129.01 168.815C128.836 165.992 130.984 163.56 133.808 163.386C238.038 156.918 291.867 102.059 292.404 101.507C294.335 99.5037 297.848 99.4965 299.794 101.493C301.986 103.757 354.733 156.955 458.411 163.386C461.112 163.553 463.217 165.796 463.217 168.496C463.217 301.174 454.491 384.371 408.445 443.985C407.429 445.291 405.911 445.974 404.38 445.974Z" fill="#02B576"/>
<path d="M295.737 473.178C291.737 472.728 255.658 467.219 217.553 417.883C182.621 372.648 173.344 305.812 171.906 201.986C229.691 192.449 271.164 170.303 295.947 153.238C320.622 170.39 361.993 192.514 420.3 202.023C418.863 305.819 409.585 372.648 374.653 417.876C336.433 467.357 301.065 472.656 295.737 473.178Z" fill="#00DC8F"/>
<path d="M208.363 410.877C185.155 366.68 178.331 305.324 177.111 217.518C234.896 207.981 276.369 185.828 301.152 168.77C324.448 184.964 362.632 205.593 415.908 215.849C413.825 311.784 403.851 374.65 370.501 417.831C332.288 467.305 296.92 472.596 291.592 473.126C287.592 472.676 251.513 467.167 213.408 417.831C211.666 415.574 209.982 413.258 208.363 410.877Z" fill="white"/>
</svg>
