<svg width="16" height="140" viewBox="0 0 16 140" fill="none" xmlns="http://www.w3.org/2000/svg">
<path d="M15.14 132.14C15.14 133.433 14.84 134.613 14.24 135.68C13.6267 136.747 12.78 137.593 11.7 138.22C10.6067 138.833 9.38 139.14 8.02 139.14C6.66 139.14 5.44 138.833 4.36 138.22C3.26667 137.593 2.42 136.747 1.82 135.68C1.20667 134.613 0.899999 133.433 0.899999 132.14C0.899999 130.833 1.20667 129.647 1.82 128.58C2.42 127.513 3.26 126.673 4.34 126.06C5.42 125.447 6.64667 125.14 8.02 125.14C9.39333 125.14 10.62 125.447 11.7 126.06C12.78 126.673 13.6267 127.513 14.24 128.58C14.84 129.647 15.14 130.833 15.14 132.14ZM13.56 132.14C13.56 131.167 13.3333 130.293 12.88 129.52C12.4267 128.733 11.78 128.12 10.94 127.68C10.1 127.227 9.12667 127 8.02 127C6.9 127 5.92667 127.227 5.1 127.68C4.26 128.12 3.61333 128.727 3.16 129.5C2.70667 130.273 2.48 131.153 2.48 132.14C2.48 133.127 2.70667 134.007 3.16 134.78C3.61333 135.553 4.26 136.167 5.1 136.62C5.92667 137.06 6.9 137.28 8.02 137.28C9.12667 137.28 10.1 137.06 10.94 136.62C11.78 136.167 12.4267 135.553 12.88 134.78C13.3333 133.993 13.56 133.113 13.56 132.14ZM1.06 120.957H9.88C11.12 120.957 12.04 120.657 12.64 120.057C13.24 119.444 13.54 118.597 13.54 117.517C13.54 116.451 13.24 115.617 12.64 115.017C12.04 114.404 11.12 114.097 9.88 114.097H1.06V112.277H9.86C11.02 112.277 12 112.511 12.8 112.977C13.5867 113.444 14.1733 114.077 14.56 114.877C14.9467 115.664 15.14 116.551 15.14 117.537C15.14 118.524 14.9467 119.417 14.56 120.217C14.1733 121.004 13.5867 121.631 12.8 122.097C12 122.551 11.02 122.777 9.86 122.777H1.06V120.957ZM15 101.901L9.3 105.221V107.421H15V109.241H1.06V104.741C1.06 103.688 1.24 102.801 1.6 102.081C1.96 101.348 2.44667 100.801 3.06 100.441C3.67333 100.081 4.37333 99.9012 5.16 99.9012C6.12 99.9012 6.96667 100.181 7.7 100.741C8.43333 101.288 8.92 102.115 9.16 103.221L15 99.7212V101.901ZM7.84 107.421V104.741C7.84 103.755 7.6 103.015 7.12 102.521C6.62667 102.028 5.97333 101.781 5.16 101.781C4.33333 101.781 3.69333 102.028 3.24 102.521C2.78667 103.001 2.56 103.741 2.56 104.741V107.421H7.84ZM15.14 88.055C15.14 89.0817 14.9733 90.0017 14.64 90.815C14.3067 91.6283 13.8133 92.2817 13.16 92.775C12.5067 93.255 11.72 93.5083 10.8 93.535V89.895C11.32 89.8417 11.72 89.6617 12 89.355C12.2667 89.0483 12.4 88.6483 12.4 88.155C12.4 87.6483 12.2867 87.2483 12.06 86.955C11.82 86.6617 11.4933 86.515 11.08 86.515C10.7333 86.515 10.4467 86.635 10.22 86.875C9.99333 87.1017 9.80667 87.3883 9.66 87.735C9.51333 88.0683 9.34667 88.5483 9.16 89.175C8.88 90.0817 8.6 90.8217 8.32 91.395C8.04 91.9683 7.62667 92.4617 7.08 92.875C6.53333 93.2883 5.82 93.495 4.94 93.495C3.63333 93.495 2.61333 93.0217 1.88 92.075C1.13333 91.1283 0.76 89.895 0.76 88.375C0.76 86.8283 1.13333 85.5817 1.88 84.635C2.61333 83.6883 3.64 83.1817 4.96 83.115V86.815C4.50667 86.8417 4.15333 87.0083 3.9 87.315C3.63333 87.6217 3.5 88.015 3.5 88.495C3.5 88.9083 3.61333 89.2417 3.84 89.495C4.05333 89.7483 4.36667 89.875 4.78 89.875C5.23333 89.875 5.58667 89.6617 5.84 89.235C6.09333 88.8083 6.36667 88.1417 6.66 87.235C6.96667 86.3283 7.26 85.595 7.54 85.035C7.82 84.4617 8.22667 83.9683 8.76 83.555C9.29333 83.1417 9.98 82.935 10.82 82.935C11.62 82.935 12.3467 83.1417 13 83.555C13.6533 83.955 14.1733 84.5417 14.56 85.315C14.9467 86.0883 15.14 87.0017 15.14 88.055ZM3.7 77.4103H6.54V72.8303H9.18V77.4103H12.26V72.2303H15V80.8303H0.96L0.96 72.2303H3.7V77.4103ZM15 62.85L9.7 65.77V66.59H15V70.01H0.96V64.27C0.96 63.1633 1.15333 62.2233 1.54 61.45C1.92667 60.6633 2.46 60.0767 3.14 59.69C3.80667 59.3033 4.55333 59.11 5.38 59.11C6.31333 59.11 7.14667 59.3767 7.88 59.91C8.61333 60.43 9.13333 61.2033 9.44 62.23L15 58.99V62.85ZM7.28 66.59V64.47C7.28 63.8433 7.12667 63.3767 6.82 63.07C6.51333 62.75 6.08 62.59 5.52 62.59C4.98667 62.59 4.56667 62.75 4.26 63.07C3.95333 63.3767 3.8 63.8433 3.8 64.47V66.59H7.28ZM0.96 43.7831L15 48.7631L15 53.0431L0.96 58.0231V54.3831L11.56 50.9031L0.96 47.4031L0.96 43.7831ZM0.96 38.9337H15V42.3537H0.96V38.9337ZM7.96 37.0353C6.57333 37.0353 5.34 36.7353 4.26 36.1353C3.16667 35.5353 2.32 34.702 1.72 33.6353C1.10667 32.5553 0.799999 31.3353 0.799999 29.9753C0.799999 28.3086 1.24 26.882 2.12 25.6953C3 24.5086 4.2 23.7153 5.72 23.3153V27.0753C5.13333 27.3553 4.68667 27.7553 4.38 28.2753C4.07333 28.782 3.92 29.362 3.92 30.0153C3.92 31.0686 4.28667 31.922 5.02 32.5753C5.75333 33.2286 6.73333 33.5553 7.96 33.5553C9.18667 33.5553 10.1667 33.2286 10.9 32.5753C11.6333 31.922 12 31.0686 12 30.0153C12 29.362 11.8467 28.782 11.54 28.2753C11.2333 27.7553 10.7867 27.3553 10.2 27.0753V23.3153C11.72 23.7153 12.92 24.5086 13.8 25.6953C14.6667 26.882 15.1 28.3086 15.1 29.9753C15.1 31.3353 14.8 32.5553 14.2 33.6353C13.5867 34.702 12.74 35.5353 11.66 36.1353C10.58 36.7353 9.34667 37.0353 7.96 37.0353ZM3.7 17.8009H6.54V13.2209H9.18V17.8009H12.26V12.6209H15V21.2209H0.96L0.96 12.6209H3.7V17.8009ZM15.14 5.32062C15.14 6.34729 14.9733 7.26729 14.64 8.08062C14.3067 8.89396 13.8133 9.54729 13.16 10.0406C12.5067 10.5206 11.72 10.774 10.8 10.8006V7.16062C11.32 7.10729 11.72 6.92729 12 6.62062C12.2667 6.31396 12.4 5.91396 12.4 5.42062C12.4 4.91396 12.2867 4.51396 12.06 4.22062C11.82 3.92729 11.4933 3.78062 11.08 3.78062C10.7333 3.78062 10.4467 3.90062 10.22 4.14062C9.99333 4.36729 9.80667 4.65396 9.66 5.00062C9.51333 5.33396 9.34667 5.81396 9.16 6.44062C8.88 7.34729 8.6 8.08729 8.32 8.66062C8.04 9.23396 7.62667 9.72729 7.08 10.1406C6.53333 10.554 5.82 10.7606 4.94 10.7606C3.63333 10.7606 2.61333 10.2873 1.88 9.34062C1.13333 8.39396 0.76 7.16062 0.76 5.64062C0.76 4.09396 1.13333 2.84729 1.88 1.90062C2.61333 0.953958 3.64 0.447291 4.96 0.380625V4.08062C4.50667 4.10729 4.15333 4.27396 3.9 4.58062C3.63333 4.88729 3.5 5.28062 3.5 5.76063C3.5 6.17396 3.61333 6.50729 3.84 6.76062C4.05333 7.01396 4.36667 7.14062 4.78 7.14062C5.23333 7.14062 5.58667 6.92729 5.84 6.50063C6.09333 6.07396 6.36667 5.40729 6.66 4.50062C6.96667 3.59396 7.26 2.86062 7.54 2.30062C7.82 1.72729 8.22667 1.23396 8.76 0.820625C9.29333 0.407291 9.98 0.200624 10.82 0.200624C11.62 0.200624 12.3467 0.407291 13 0.820625C13.6533 1.22062 14.1733 1.80729 14.56 2.58062C14.9467 3.35396 15.14 4.26729 15.14 5.32062Z" fill="#2D2D2D"/>
</svg>
