<svg width="16" height="127" viewBox="0 0 16 127" fill="none" xmlns="http://www.w3.org/2000/svg">
<path d="M1.06 107.573L15 111.613V113.653L3.78 116.893L15 120.253L15.02 122.273L1.06 126.173V124.233L12.88 121.193L1.06 117.833V115.793L12.84 112.593L1.06 109.533V107.573ZM2.54 103.761H7.2V98.6811H8.7V103.761H13.5V98.0811H15V105.581H1.04V98.0811H2.54V103.761ZM12.52 81.5552V86.7952L15 87.6352V91.2152L0.96 86.1352V82.1752L15 77.0952V80.7152L12.52 81.5552ZM9.88 82.4352L4.74 84.1752L9.88 85.8952V82.4352ZM15 68.3891L9.7 71.3091V72.1291H15V75.5491H0.96V69.8091C0.96 68.7024 1.15333 67.7624 1.54 66.9891C1.92667 66.2024 2.46 65.6157 3.14 65.2291C3.80667 64.8424 4.55333 64.6491 5.38 64.6491C6.31333 64.6491 7.14667 64.9157 7.88 65.4491C8.61333 65.9691 9.13333 66.7424 9.44 67.7691L15 64.5291V68.3891ZM7.28 72.1291V70.0091C7.28 69.3824 7.12667 68.9157 6.82 68.6091C6.51333 68.2891 6.08 68.1291 5.52 68.1291C4.98667 68.1291 4.56667 68.2891 4.26 68.6091C3.95333 68.9157 3.8 69.3824 3.8 70.0091V72.1291H7.28ZM3.7 59.0822H6.54V54.5022H9.18V59.0822H12.26V53.9022H15V62.5022H0.96L0.96 53.9022H3.7L3.7 59.0822ZM0.96 35.2836H15V38.7036H9.22L9.22 44.0236H15V47.4436H0.96L0.96 44.0236H6.46V38.7036H0.96V35.2836ZM3.7 29.3947H6.54L6.54 24.8147H9.18V29.3947H12.26V24.2147H15V32.8147H0.96L0.96 24.2147H3.7L3.7 29.3947ZM15 14.8344L9.7 17.7544V18.5744H15V21.9944H0.96L0.96 16.2544C0.96 15.1477 1.15333 14.2077 1.54 13.4344C1.92667 12.6477 2.46 12.061 3.14 11.6744C3.80667 11.2877 4.55333 11.0944 5.38 11.0944C6.31333 11.0944 7.14667 11.361 7.88 11.8944C8.61333 12.4144 9.13333 13.1877 9.44 14.2144L15 10.9744V14.8344ZM7.28 18.5744V16.4544C7.28 15.8277 7.12667 15.361 6.82 15.0544C6.51333 14.7344 6.08 14.5744 5.52 14.5744C4.98667 14.5744 4.56667 14.7344 4.26 15.0544C3.95333 15.361 3.8 15.8277 3.8 16.4544V18.5744H7.28ZM3.7 5.5275H6.54V0.9475H9.18V5.5275H12.26V0.3475H15V8.9475H0.96L0.96 0.3475H3.7V5.5275Z" fill="#2D2D2D"/>
</svg>
