<svg width="20" height="84" viewBox="0 0 20 84" fill="none" xmlns="http://www.w3.org/2000/svg">
<path d="M0.68 81.137H12.46C12.5933 81.137 12.7 81.097 12.78 81.017C12.9 80.937 12.96 80.8104 12.96 80.637V80.117H15V81.417C15 81.9637 14.8067 82.4437 14.42 82.857C13.98 83.337 13.44 83.577 12.8 83.577H0.68L0.68 81.137ZM12.96 76.5514H15V80.2514H12.96V76.5514ZM12.96 72.9967H15V76.6967H12.96V72.9967ZM12.96 69.442H15V73.142H12.96L12.96 69.442ZM12.96 65.8873H15V69.5873H12.96V65.8873ZM12.96 62.3327H15V66.0327H12.96V62.3327ZM1.4 57.678C1.4 57.318 1.52667 57.0113 1.78 56.758C2.03333 56.5046 2.34 56.378 2.7 56.378C3.04667 56.378 3.34667 56.5046 3.6 56.758C3.85333 57.0113 3.98 57.318 3.98 57.678C3.98 58.0246 3.85333 58.3246 3.6 58.578C3.34667 58.8313 3.04667 58.958 2.7 58.958C2.34 58.958 2.03333 58.8313 1.78 58.578C1.52667 58.3246 1.4 58.0246 1.4 57.678ZM5.8 56.458H12.66H12.96V55.438H15L15 56.138L14.18 56.878V56.918C14.7267 57.3713 15 57.938 15 58.618V62.478H12.96V59.458C12.96 59.2713 12.9067 59.138 12.8 59.058C12.6933 58.938 12.56 58.878 12.4 58.878H5.8V56.458ZM6.02 50.7234C5.35333 49.2034 5.02 47.7168 5.02 46.2634C5.02 44.3834 5.60667 42.9501 6.78 41.9634C7.79333 41.1234 9.13333 40.7034 10.8 40.7034H12.8C13.4 40.7034 13.9267 40.9301 14.38 41.3834C14.7933 41.7968 15 42.2901 15 42.8634V47.7234C15 48.4168 14.9267 48.9101 14.78 49.2034V49.2834C14.9267 49.5768 15 50.0701 15 50.7634V55.6034H12.96V52.0034C12.64 52.2301 12.3 52.3968 11.94 52.5034C11.5533 52.6368 11.12 52.7034 10.64 52.7034C9.84 52.7034 9.13333 52.5034 8.52 52.1034C8.02667 51.7701 7.65333 51.3101 7.4 50.7234H6.02ZM11.12 43.1434C9.62667 43.1434 8.54667 43.4701 7.88 44.1234C7.26667 44.7368 6.96 45.6701 6.96 46.9234C6.96 47.4968 7.02667 48.0901 7.16 48.7034C7.28 47.8501 7.64 47.1568 8.24 46.6234C8.86667 46.0634 9.66667 45.7834 10.64 45.7834C11.08 45.7834 11.4933 45.8434 11.88 45.9634C12.2933 46.0834 12.6533 46.2501 12.96 46.4634V43.6634C12.96 43.5168 12.92 43.3968 12.84 43.3034C12.7333 43.1968 12.6067 43.1434 12.46 43.1434H11.12ZM12.72 49.2634C12.6667 48.7968 12.46 48.4434 12.1 48.2034C11.7533 47.9634 11.2933 47.8301 10.72 47.8034C10.08 47.8034 9.59333 47.9501 9.26 48.2434C8.94 48.5234 8.78 48.8634 8.78 49.2634C8.78 49.7968 9.02 50.1968 9.5 50.4634C9.84667 50.6501 10.2533 50.7434 10.72 50.7434C11.2533 50.7168 11.6933 50.5968 12.04 50.3834C12.44 50.1168 12.6667 49.7434 12.72 49.2634ZM5.56 24.7417C5.56 24.4751 5.66 24.2484 5.86 24.0617C6.04667 23.8617 6.27333 23.7617 6.54 23.7617C6.82 23.7617 7.06 23.8617 7.26 24.0617C7.44667 24.2484 7.54 24.4751 7.54 24.7417C7.54 25.0084 7.44667 25.2417 7.26 25.4417C7.06 25.6284 6.82 25.7217 6.54 25.7217C6.27333 25.7217 6.04667 25.6284 5.86 25.4417C5.66 25.2417 5.56 25.0084 5.56 24.7417ZM5.8 18.1417H13.58V17.1217H15V18.1417C16.5867 18.1817 17.8 18.7151 18.64 19.7417C19.4 20.6884 19.78 21.9217 19.78 23.4417V25.6617C19.78 27.1417 19.4267 28.3484 18.72 29.2817C17.8533 30.4151 16.5533 30.9817 14.82 30.9817H10.64L9.94 30.1217V29.2817H14.78C16.1133 29.2817 17.04 28.9351 17.56 28.2417C18.0933 27.5351 18.36 26.3084 18.36 24.5617C18.36 22.8951 18.1333 21.7217 17.68 21.0417C17.1333 20.2417 16.1667 19.8417 14.78 19.8417H5.8V18.1417ZM6.14 14.5255C5.75333 13.2988 5.56 12.1521 5.56 11.0855C5.56 9.43214 6.07333 8.17214 7.1 7.30547C7.98 6.5588 9.13333 6.18547 10.56 6.18547H13.1C13.26 6.18547 13.42 6.20547 13.58 6.24547V5.54547H15V5.96547L14.3 6.52547V6.58547C14.7667 6.9588 15 7.42547 15 7.98547V17.1855H13.58V8.64547C13.58 8.1388 13.3267 7.88547 12.82 7.88547H10.5C9.46 7.88547 8.64 8.1588 8.04 8.70547C7.37333 9.30547 7.04 10.1788 7.04 11.3255C7.04 12.0188 7.18667 13.0855 7.48 14.5255H6.14ZM1.4 1.24156C1.4 0.961562 1.5 0.728229 1.7 0.541562C1.88667 0.341562 2.11333 0.241562 2.38 0.241562C2.66 0.241562 2.9 0.341562 3.1 0.541562C3.28667 0.728229 3.38 0.961562 3.38 1.24156C3.38 1.50823 3.28667 1.74156 3.1 1.94156C2.9 2.12823 2.66 2.22156 2.38 2.22156C2.11333 2.22156 1.88667 2.12823 1.7 1.94156C1.5 1.74156 1.4 1.50823 1.4 1.24156ZM5.8 0.381562H13.1C13.5933 0.381562 14.02 0.541562 14.38 0.861562C14.7933 1.22156 15 1.66823 15 2.20156V5.68156H13.58V2.84156C13.58 2.6149 13.5 2.42823 13.34 2.28156C13.2067 2.14823 13.0333 2.08156 12.82 2.08156H5.8V0.381562Z" fill="#2D2D2D"/>
</svg>
