<svg width="20" height="155" viewBox="0 0 20 155" fill="none" xmlns="http://www.w3.org/2000/svg">
<path d="M0.68 152.289H12.46C12.5933 152.289 12.7 152.249 12.78 152.169C12.9 152.089 12.96 151.963 12.96 151.789V151.269H15V152.569C15 153.116 14.8067 153.596 14.42 154.009C13.98 154.489 13.44 154.729 12.8 154.729H0.68L0.68 152.289ZM1.4 146.604C1.4 146.244 1.52667 145.937 1.78 145.684C2.03333 145.43 2.34 145.304 2.7 145.304C3.04667 145.304 3.34667 145.43 3.6 145.684C3.85333 145.937 3.98 146.244 3.98 146.604C3.98 146.95 3.85333 147.25 3.6 147.504C3.34667 147.757 3.04667 147.884 2.7 147.884C2.34 147.884 2.03333 147.757 1.78 147.504C1.52667 147.25 1.4 146.95 1.4 146.604ZM5.8 145.384H12.66H12.96V144.364H15V145.064L14.18 145.804V145.844C14.7267 146.297 15 146.864 15 147.544V151.404H12.96V148.384C12.96 148.197 12.9067 148.064 12.8 147.984C12.6933 147.864 12.56 147.804 12.4 147.804H5.8V145.384ZM5.8 138.489H12.8C13.32 138.489 13.8 138.663 14.24 139.009C14.7467 139.449 15 139.996 15 140.649V144.509H12.96L12.96 141.429C12.96 141.283 12.9067 141.156 12.8 141.049C12.7067 140.956 12.5933 140.909 12.46 140.909H5.8V138.489ZM16.46 140.149C16.46 139.789 16.5867 139.483 16.84 139.229C17.0933 138.976 17.4 138.849 17.76 138.849C18.12 138.849 18.4267 138.976 18.68 139.229C18.9333 139.483 19.06 139.789 19.06 140.149C19.06 140.509 18.9333 140.816 18.68 141.069C18.4267 141.309 18.12 141.429 17.76 141.429C17.4 141.429 17.0933 141.309 16.84 141.069C16.5867 140.816 16.46 140.509 16.46 140.149ZM1.4 127.994C1.4 127.634 1.52667 127.327 1.78 127.074C2.03333 126.82 2.34 126.694 2.7 126.694C3.04667 126.694 3.34667 126.82 3.6 127.074C3.85333 127.327 3.98 127.634 3.98 127.994C3.98 128.354 3.85333 128.66 3.6 128.914C3.34667 129.167 3.04667 129.294 2.7 129.294C2.34 129.294 2.03333 129.167 1.78 128.914C1.52667 128.66 1.4 128.354 1.4 127.994ZM1.4 124.954C1.4 124.594 1.52667 124.287 1.78 124.034C2.03333 123.78 2.34 123.654 2.7 123.654C3.04667 123.654 3.34667 123.78 3.6 124.034C3.85333 124.287 3.98 124.594 3.98 124.954C3.98 125.3 3.85333 125.6 3.6 125.854C3.34667 126.107 3.04667 126.234 2.7 126.234C2.34 126.234 2.03333 126.107 1.78 125.854C1.52667 125.6 1.4 125.3 1.4 124.954ZM5.26 123.654H12.46C12.62 123.654 12.74 123.607 12.82 123.514C12.9133 123.434 12.96 123.327 12.96 123.194V122.634H15V123.894C15 124.507 14.7533 125.06 14.26 125.554C14.8867 126.314 15.2 127.16 15.2 128.094C15.2 129.147 14.8667 130.054 14.2 130.814C13.2533 131.827 11.9867 132.334 10.4 132.334C8.94667 132.334 7.74 131.867 6.78 130.934C5.91333 130.08 5.48 129.034 5.48 127.794C5.48 127.1 5.62667 126.407 5.92 125.714L5.26 124.854V123.654ZM7.84 126.094C7.66667 126.56 7.58 127.007 7.58 127.434C7.58 128.154 7.84667 128.747 8.38 129.214C8.9 129.68 9.58 129.914 10.42 129.914C11.26 129.914 11.9333 129.707 12.44 129.294C12.9467 128.867 13.2 128.3 13.2 127.594C13.2 127.114 13.0933 126.614 12.88 126.094H7.84ZM9.16 116.771C6.74667 114.984 5.54 112.778 5.54 110.151C5.54 108.551 6.04 107.231 7.04 106.191C7.96 105.244 9.10667 104.771 10.48 104.771H12.8C13.4 104.771 13.9067 104.978 14.32 105.391C14.7733 105.804 15 106.318 15 106.931V122.791H12.96V119.191H5.8V116.771H9.16ZM10.6 107.211C9.77333 107.211 9.10667 107.478 8.6 108.011C7.96 108.651 7.64 109.491 7.64 110.531C7.64 111.558 7.98 112.558 8.66 113.531C9.56667 114.838 11 115.918 12.96 116.771L12.96 107.711C12.96 107.378 12.7933 107.211 12.46 107.211H10.6ZM0.68 99.848H12.46C12.5933 99.848 12.7 99.808 12.78 99.728C12.9 99.648 12.96 99.5213 12.96 99.348V98.828H15V100.128C15 100.675 14.8067 101.155 14.42 101.568C13.98 102.048 13.44 102.288 12.8 102.288H0.68V99.848ZM1.4 92.6623C1.4 92.3023 1.52667 91.9957 1.78 91.7423C2.03333 91.489 2.34 91.3623 2.7 91.3623C3.04667 91.3623 3.34667 91.489 3.6 91.7423C3.85333 91.9957 3.98 92.3023 3.98 92.6623C3.98 93.009 3.85333 93.309 3.6 93.5623C3.34667 93.8157 3.04667 93.9423 2.7 93.9423C2.34 93.9423 2.03333 93.8157 1.78 93.5623C1.52667 93.309 1.4 93.009 1.4 92.6623ZM6.14 96.3223C5.75333 95.0557 5.56 93.9023 5.56 92.8623C5.56 91.249 6.06667 89.949 7.08 88.9623C7.98667 88.069 9.13333 87.6223 10.52 87.6223H12.66H12.96V86.9623H15V87.3823L14.18 88.0423V88.0823C14.7267 88.5357 15 89.1023 15 89.7823V98.9823H12.96V90.5623C12.96 90.229 12.7933 90.0623 12.46 90.0623H10.66C9.75333 90.0623 9.02667 90.369 8.48 90.9823C7.92 91.5823 7.64 92.3757 7.64 93.3623C7.64 94.0157 7.78667 95.0023 8.08 96.3223H6.14ZM0.68 81.0869H12.8C13.36 81.0869 13.84 81.2669 14.24 81.6269C14.7467 82.0402 15 82.5802 15 83.2469V87.1069H12.96L12.96 84.0269C12.96 83.8802 12.9067 83.7535 12.8 83.6469C12.7067 83.5535 12.5933 83.5069 12.46 83.5069H0.68V81.0869ZM0.68 75.8831H14.5L15.5 77.1231V78.3231H0.68V75.8831ZM5.26 58.7841C5.26 58.5174 5.36 58.2907 5.56 58.1041C5.74667 57.9041 5.98 57.8041 6.26 57.8041C6.52667 57.8041 6.76 57.9041 6.96 58.1041C7.14667 58.2907 7.24 58.5174 7.24 58.7841C7.24 59.0641 7.14667 59.2974 6.96 59.4841C6.76 59.6707 6.52667 59.7641 6.26 59.7641C5.98 59.7641 5.74667 59.6707 5.56 59.4841C5.36 59.2974 5.26 59.0641 5.26 58.7841ZM5.26 56.3641C5.26 56.0841 5.36 55.8507 5.56 55.6641C5.74667 55.4641 5.98 55.3641 6.26 55.3641C6.52667 55.3641 6.76 55.4641 6.96 55.6641C7.14667 55.8507 7.24 56.0841 7.24 56.3641C7.24 56.6307 7.14667 56.8641 6.96 57.0641C6.76 57.2507 6.52667 57.3441 6.26 57.3441C5.98 57.3441 5.74667 57.2507 5.56 57.0641C5.36 56.8641 5.26 56.6307 5.26 56.3641ZM5.8 49.4041H13.1C13.58 49.4041 13.9933 49.5507 14.34 49.8441C14.78 50.2174 15 50.6707 15 51.2041V62.6441C15 63.4174 14.7467 64.0841 14.24 64.6441C13.5867 65.4041 12.74 65.7841 11.7 65.7841H7.94L7.24 64.9241V64.0841H11.7C12.22 64.0841 12.66 63.8974 13.02 63.5241C13.3933 63.1641 13.58 62.7107 13.58 62.1641V51.8641C13.58 51.3574 13.3267 51.1041 12.82 51.1041H5.8V49.4041ZM0.68 44.9434H12.82C13.0333 44.9434 13.2133 44.8768 13.36 44.7434C13.5067 44.5968 13.58 44.4101 13.58 44.1834V43.9234H15V44.8434C15 45.2701 14.86 45.6434 14.58 45.9634C14.1933 46.4168 13.7 46.6434 13.1 46.6434H0.68V44.9434ZM9.2 40.4605C7.84 40.4605 6.84 39.9805 6.2 39.0205C5.78667 38.3938 5.58 37.5605 5.58 36.5205C5.58 35.2538 6.01333 34.1938 6.88 33.3405C7.74667 32.4871 8.96 32.0605 10.52 32.0605C11.9733 32.0605 13.2 32.4871 14.2 33.3405C15.1333 34.1405 15.6 35.1538 15.6 36.3805C15.6 37.5271 15.1667 38.4605 14.3 39.1805C14.7667 39.5405 15 40.0205 15 40.6205V44.0605H13.58V41.2205C13.58 41.0071 13.5067 40.8271 13.36 40.6805C13.2133 40.5338 13.0333 40.4605 12.82 40.4605H9.2ZM13.12 38.7605C13.8267 38.0671 14.18 37.3005 14.18 36.4605C14.18 35.6605 13.8533 35.0138 13.2 34.5205C12.5333 34.0138 11.6733 33.7605 10.62 33.7605C9.44667 33.7605 8.52 34.0538 7.84 34.6405C7.28 35.1338 7 35.7871 7 36.6005C7 37.2138 7.18 37.7138 7.54 38.1005C7.95333 38.5405 8.50667 38.7605 9.2 38.7605H13.12ZM5.68 28.3289C5.6 27.8489 5.56 27.3356 5.56 26.7889C5.56 25.3089 6.00667 24.1156 6.9 23.2089C7.72667 22.3956 8.77333 21.9889 10.04 21.9889H13.1C13.2733 21.9889 13.4333 22.0022 13.58 22.0289V21.4689H15V21.7689L14.3 22.3289V22.3889C14.4333 22.4956 14.5533 22.6156 14.66 22.7489C14.8867 23.0689 15 23.4156 15 23.7889V30.3489H13.58V24.4289C13.58 23.9356 13.3267 23.6889 12.82 23.6889H10.28C9.33333 23.6889 8.54667 23.9756 7.92 24.5489C7.28 25.1622 6.95333 26.1089 6.94 27.3889C6.94 27.7622 6.96667 28.0756 7.02 28.3289H5.68ZM1.4 15.3186C1.4 15.0386 1.5 14.8053 1.7 14.6186C1.88667 14.4319 2.11333 14.3386 2.38 14.3386C2.66 14.3386 2.9 14.4319 3.1 14.6186C3.28667 14.8053 3.38 15.0386 3.38 15.3186C3.38 15.5853 3.28667 15.8186 3.1 16.0186C2.9 16.2053 2.66 16.2986 2.38 16.2986C2.11333 16.2986 1.88667 16.2053 1.7 16.0186C1.5 15.8186 1.4 15.5853 1.4 15.3186ZM6.14 18.9786C5.75333 17.7519 5.56 16.6053 5.56 15.5386C5.56 13.8853 6.07333 12.6253 7.1 11.7586C7.98 11.0119 9.13333 10.6386 10.56 10.6386H13.1C13.26 10.6386 13.42 10.6586 13.58 10.6986V9.99859H15V10.4186L14.3 10.9786V11.0386C14.7667 11.4119 15 11.8786 15 12.4386V21.6386H13.58V13.0986C13.58 12.5919 13.3267 12.3386 12.82 12.3386H10.5C9.46 12.3386 8.64 12.6119 8.04 13.1586C7.37333 13.7586 7.04 14.6319 7.04 15.7786C7.04 16.4719 7.18667 17.5386 7.48 18.9786H6.14ZM0.68 4.83469H13.1C13.62 4.83469 14.06 5.00802 14.42 5.35469C14.8067 5.71469 15 6.14802 15 6.65469V10.1347H13.58V7.29469C13.58 7.04135 13.4933 6.84802 13.32 6.71469C13.1733 6.59469 13.0067 6.53469 12.82 6.53469H0.68V4.83469ZM0.68 0.373125H14.8L15.5 1.23312V2.07312H0.68L0.68 0.373125Z" fill="#2D2D2D"/>
</svg>
