<svg width="25" height="178" viewBox="0 0 25 178" fill="none" xmlns="http://www.w3.org/2000/svg">
<path d="M5.68 175.535H17.46C17.5933 175.535 17.7 175.495 17.78 175.415C17.9 175.335 17.96 175.209 17.96 175.035V174.515H20V175.815C20 176.362 19.8067 176.842 19.42 177.255C18.98 177.735 18.44 177.975 17.8 177.975H5.68V175.535ZM17.96 170.95H20V174.65H17.96V170.95ZM17.96 167.395H20V171.095H17.96V167.395ZM17.96 163.84H20V167.54H17.96V163.84ZM17.96 160.286H20V163.986H17.96V160.286ZM17.96 156.731H20V160.431H17.96V156.731ZM17.96 153.176H20V156.876H17.96V153.176ZM17.96 149.622H20L20 153.322H17.96V149.622ZM10.8 143.747H17.8C18.32 143.747 18.8 143.92 19.24 144.267C19.7467 144.707 20 145.254 20 145.907V149.767H17.96V146.687C17.96 146.54 17.9067 146.414 17.8 146.307C17.7067 146.214 17.5933 146.167 17.46 146.167H10.8V143.747ZM21.46 148.127C21.46 147.767 21.5867 147.46 21.84 147.207C22.0933 146.954 22.4 146.827 22.76 146.827C23.12 146.827 23.4267 146.954 23.68 147.207C23.9333 147.46 24.06 147.767 24.06 148.127C24.06 148.474 23.9333 148.774 23.68 149.027C23.4267 149.28 23.12 149.407 22.76 149.407C22.4 149.407 22.0933 149.28 21.84 149.027C21.5867 148.774 21.46 148.474 21.46 148.127ZM21.46 145.067C21.46 144.707 21.5867 144.407 21.84 144.167C22.0933 143.914 22.4 143.787 22.76 143.787C23.12 143.787 23.4267 143.914 23.68 144.167C23.9333 144.407 24.06 144.707 24.06 145.067C24.06 145.427 23.9333 145.734 23.68 145.987C23.4267 146.24 23.12 146.367 22.76 146.367C22.4 146.367 22.0933 146.24 21.84 145.987C21.5867 145.734 21.46 145.427 21.46 145.067ZM10.68 139.544C10.6 139.09 10.56 138.564 10.56 137.964C10.56 136.43 11.0533 135.19 12.04 134.244C12.9333 133.404 14.04 132.984 15.36 132.984H17.8C18.4267 132.984 18.9533 133.21 19.38 133.664C19.7933 134.077 20 134.57 20 135.144V141.564H17.96L17.96 135.924C17.96 135.59 17.7933 135.424 17.46 135.424H15.6C14.68 135.424 13.94 135.704 13.38 136.264C12.86 136.784 12.58 137.537 12.54 138.524C12.54 138.977 12.5667 139.317 12.62 139.544H10.68ZM5.68 127.957H17.46C17.5933 127.957 17.7 127.917 17.78 127.837C17.9 127.757 17.96 127.631 17.96 127.457V126.937H20V128.237C20 128.784 19.8067 129.264 19.42 129.677C18.98 130.157 18.44 130.397 17.8 130.397H5.68V127.957ZM10.8 121.052H17.8C18.32 121.052 18.8 121.225 19.24 121.572C19.7467 122.012 20 122.558 20 123.212V127.072H17.96V123.992C17.96 123.845 17.9067 123.718 17.8 123.612C17.7067 123.518 17.5933 123.472 17.46 123.472H10.8V121.052ZM21.46 122.712C21.46 122.352 21.5867 122.045 21.84 121.792C22.0933 121.538 22.4 121.412 22.76 121.412C23.12 121.412 23.4267 121.538 23.68 121.792C23.9333 122.045 24.06 122.352 24.06 122.712C24.06 123.072 23.9333 123.378 23.68 123.632C23.4267 123.872 23.12 123.992 22.76 123.992C22.4 123.992 22.0933 123.872 21.84 123.632C21.5867 123.378 21.46 123.072 21.46 122.712ZM5.68 98.1042H19.82C21.42 98.1042 22.6533 98.5909 23.52 99.5642C24.36 100.511 24.78 101.791 24.78 103.404V105.624C24.78 107.211 24.3733 108.478 23.56 109.424C22.6933 110.438 21.4467 110.944 19.82 110.944H15.64L14.94 110.084V109.244H19.78C21.1133 109.244 22.04 108.898 22.56 108.204C23.0933 107.498 23.36 106.271 23.36 104.524C23.36 102.858 23.1333 101.684 22.68 101.004C22.1333 100.204 21.1667 99.8042 19.78 99.8042H5.68V98.1042ZM5.68 93.6387H17.82C18.0333 93.6387 18.2133 93.5721 18.36 93.4387C18.5067 93.2921 18.58 93.1054 18.58 92.8787V92.6187H20L20 93.5387C20 93.9654 19.86 94.3387 19.58 94.6587C19.1933 95.1121 18.7 95.3387 18.1 95.3387H5.68V93.6387ZM18.58 88.8158C17.6867 89.3624 16.6667 89.6358 15.52 89.6358C13.9067 89.6358 12.66 89.1824 11.78 88.2758C11.0067 87.4624 10.6067 86.3891 10.58 85.0558C10.58 84.0958 10.7867 83.3024 11.2 82.6758C11.84 81.7158 12.84 81.2358 14.2 81.2358H17.82C18.0067 81.2358 18.1667 81.1891 18.3 81.0958C18.4733 80.9758 18.5667 80.8158 18.58 80.6158V80.5758H20V81.0758C20 81.6758 19.7667 82.1558 19.3 82.5158C20.1667 83.2358 20.6 84.1491 20.6 85.2558C20.6 86.4158 20.1667 87.4224 19.3 88.2758V88.3158L20 88.8758V92.7558H18.58V88.8158ZM14.2 82.9358C13.5067 82.9358 12.9533 83.1558 12.54 83.5958C12.18 83.9824 12 84.4824 12 85.0958C12 85.9491 12.32 86.6358 12.96 87.1558C13.5867 87.6758 14.4133 87.9358 15.44 87.9358C16.52 87.9358 17.42 87.6624 18.14 87.1158C18.8333 86.5958 19.18 85.9424 19.18 85.1558C19.18 84.3824 18.8267 83.6424 18.12 82.9358H14.2ZM18.58 76.3641C17.6867 77.2307 16.54 77.6641 15.14 77.6641C13.6467 77.6641 12.4733 77.1707 11.62 76.1841C10.9133 75.3574 10.56 74.2907 10.56 72.9841C10.56 72.2774 10.6733 71.5374 10.9 70.7641H12.24C12.04 71.5507 11.94 72.2374 11.94 72.8241C11.94 73.8107 12.2467 74.5841 12.86 75.1441C13.46 75.6907 14.2933 75.9641 15.36 75.9641C16.2267 75.9641 16.9933 75.6707 17.66 75.0841C18.2733 74.5374 18.58 73.9041 18.58 73.1841V69.1441H19.14L20 69.8441V80.7441H18.58V76.3641ZM3.36 67.2808C3 67.5608 2.56 67.7008 2.04 67.7008C1.52 67.7008 1.10667 67.5474 0.799999 67.2408C0.479999 66.9341 0.319999 66.5274 0.319999 66.0208C0.319999 65.7008 0.373333 65.3808 0.479999 65.0608H1.3C1.23333 65.3008 1.2 65.5341 1.2 65.7608C1.2 66.4541 1.55333 66.8008 2.26 66.8008C2.51333 66.8008 2.74667 66.7141 2.96 66.5408C3.22667 66.3274 3.36 66.0408 3.36 65.6808V64.4008H3.7L4.18 64.8008V68.1608H3.36V67.2808ZM5.68 65.2208H19.8L20.5 66.0808V66.9208H5.68V65.2208ZM6.4 39.9558C6.4 39.6758 6.5 39.4424 6.7 39.2558C6.88667 39.0558 7.11333 38.9558 7.38 38.9558C7.66 38.9558 7.9 39.0558 8.1 39.2558C8.28667 39.4424 8.38 39.6758 8.38 39.9558C8.38 40.2224 8.28667 40.4558 8.1 40.6558C7.9 40.8424 7.66 40.9358 7.38 40.9358C7.11333 40.9358 6.88667 40.8424 6.7 40.6558C6.5 40.4558 6.4 40.2224 6.4 39.9558ZM15.2 45.9758C12.1067 44.1491 10.56 41.7424 10.56 38.7558C10.56 37.1691 11.0533 35.8958 12.04 34.9358C12.9333 34.0558 14.0667 33.6158 15.44 33.6158H18.1C18.62 33.6158 19.06 33.7891 19.42 34.1358C19.8067 34.4824 20 34.9091 20 35.4158V45.9558C21.5067 45.9958 22.68 46.4824 23.52 47.4158C24.36 48.3624 24.78 49.6424 24.78 51.2558V53.4758C24.78 55.0624 24.3733 56.3291 23.56 57.2758C22.6933 58.2891 21.4467 58.7958 19.82 58.7958H15.64L14.94 57.9358V57.0958H19.78C21.1133 57.0958 22.04 56.7491 22.56 56.0558C23.0933 55.3491 23.36 54.1158 23.36 52.3558C23.36 50.7024 23.1333 49.5358 22.68 48.8558C22.1333 48.0558 21.1667 47.6558 19.78 47.6558L10.8 47.6758V45.9758H15.2ZM15.26 35.3358C14.4067 35.3358 13.6933 35.6024 13.12 36.1358C12.3867 36.8158 12.02 37.7824 12.02 39.0358C12.02 40.1824 12.3733 41.2558 13.08 42.2558C14.1733 43.8024 16.0067 45.0424 18.58 45.9758V36.0758C18.58 35.5824 18.3267 35.3358 17.82 35.3358H15.26ZM10.8 26.7975H18.58V25.7775H20V26.7975C21.6667 26.8375 22.9133 27.4308 23.74 28.5775C24.42 29.4975 24.76 30.6908 24.76 32.1575C24.76 32.3842 24.7533 32.6708 24.74 33.0175L23.92 33.6775H23.28C23.3333 33.2908 23.36 32.8708 23.36 32.4175C23.36 29.8042 22.16 28.4975 19.76 28.4975H10.8V26.7975ZM14.06 23.1398C12.8867 22.6732 11.9733 21.8932 11.32 20.7998C10.8133 19.9198 10.56 19.0065 10.56 18.0598C10.56 17.1132 10.8133 16.2065 11.32 15.3398C11.9733 14.2332 12.8867 13.4532 14.06 12.9998L14.54 13.1798C14.9267 14.0998 15.4533 14.8532 16.12 15.4398C16.8133 16.0398 17.6333 16.4198 18.58 16.5798V12.7998H20V16.8598C20 17.2598 19.8067 17.6465 19.42 18.0198V18.0798C19.8067 18.4398 20 18.8265 20 19.2398V25.9198H18.58V19.5398C17.7667 19.6865 17 20.0198 16.28 20.5398C15.5333 21.1398 14.9533 21.9398 14.54 22.9398L14.06 23.1398ZM13.86 14.8398C13.22 15.2798 12.74 15.7798 12.42 16.3398C12.14 16.8732 12 17.4465 12 18.0598C12 18.6732 12.1267 19.2265 12.38 19.7198C12.6733 20.3065 13.1667 20.8265 13.86 21.2798C14.1667 20.5865 14.6 19.9932 15.16 19.4998C15.8533 18.8865 16.72 18.4198 17.76 18.0998V18.0398C16.68 17.7065 15.7933 17.2265 15.1 16.5998C14.5667 16.0932 14.1533 15.5065 13.86 14.8398ZM14.2 9.33156C12.84 9.33156 11.84 8.85156 11.2 7.89156C10.7867 7.2649 10.58 6.43156 10.58 5.39156C10.58 4.1249 11.0133 3.0649 11.88 2.21156C12.7467 1.35823 13.96 0.931562 15.52 0.931562C16.9733 0.931562 18.2 1.35823 19.2 2.21156C20.1333 3.01156 20.6 4.0249 20.6 5.25156C20.6 6.39823 20.1667 7.33156 19.3 8.05156C19.7667 8.41156 20 8.89156 20 9.49156V12.9316H18.58V10.0916C18.58 9.87823 18.5067 9.69823 18.36 9.55156C18.2133 9.4049 18.0333 9.33156 17.82 9.33156H14.2ZM18.12 7.63156C18.8267 6.93823 19.18 6.17156 19.18 5.33156C19.18 4.53156 18.8533 3.8849 18.2 3.39156C17.5333 2.8849 16.6733 2.63156 15.62 2.63156C14.4467 2.63156 13.52 2.9249 12.84 3.51156C12.28 4.0049 12 4.65823 12 5.47156C12 6.0849 12.18 6.5849 12.54 6.97156C12.9533 7.41156 13.5067 7.63156 14.2 7.63156H18.12Z" fill="#2D2D2D"/>
</svg>
