<svg width="28" height="107" viewBox="0 0 28 107" fill="none" xmlns="http://www.w3.org/2000/svg">
<path d="M5.68 103.621H17.46C17.5933 103.621 17.7 103.581 17.78 103.501C17.9 103.421 17.96 103.295 17.96 103.121V102.601H20V103.901C20 104.448 19.8067 104.928 19.42 105.341C18.98 105.821 18.44 106.061 17.8 106.061H5.68V103.621ZM17.96 99.0358H20V102.736H17.96V99.0358ZM17.96 95.4811H20V99.1811H17.96V95.4811ZM17.96 91.9264H20V95.6264H17.96V91.9264ZM17.96 88.3717H20V92.0717H17.96V88.3717ZM17.96 84.817H20V88.517H17.96V84.817ZM17.96 81.2623H20V84.9623H17.96V81.2623ZM17.96 77.7077H20L20 81.4077H17.96V77.7077ZM10.8 71.833H17.8C18.32 71.833 18.8 72.0063 19.24 72.353C19.7467 72.793 20 73.3396 20 73.993V77.853H17.96V74.773C17.96 74.6263 17.9067 74.4996 17.8 74.393C17.7067 74.2996 17.5933 74.253 17.46 74.253H10.8V71.833ZM21.46 76.213C21.46 75.853 21.5867 75.5463 21.84 75.293C22.0933 75.0396 22.4 74.913 22.76 74.913C23.12 74.913 23.4267 75.0396 23.68 75.293C23.9333 75.5463 24.06 75.853 24.06 76.213C24.06 76.5596 23.9333 76.8596 23.68 77.113C23.4267 77.3663 23.12 77.493 22.76 77.493C22.4 77.493 22.0933 77.3663 21.84 77.113C21.5867 76.8596 21.46 76.5596 21.46 76.213ZM21.46 73.153C21.46 72.793 21.5867 72.493 21.84 72.253C22.0933 71.9996 22.4 71.873 22.76 71.873C23.12 71.873 23.4267 71.9996 23.68 72.253C23.9333 72.493 24.06 72.793 24.06 73.153C24.06 73.513 23.9333 73.8196 23.68 74.073C23.4267 74.3263 23.12 74.453 22.76 74.453C22.4 74.453 22.0933 74.3263 21.84 74.073C21.5867 73.8196 21.46 73.513 21.46 73.153ZM10.68 67.6297C10.6 67.1764 10.56 66.6497 10.56 66.0497C10.56 64.5164 11.0533 63.2764 12.04 62.3297C12.9333 61.4897 14.04 61.0697 15.36 61.0697H17.8C18.4267 61.0697 18.9533 61.2964 19.38 61.7497C19.7933 62.163 20 62.6564 20 63.2297V69.6497H17.96L17.96 64.0097C17.96 63.6764 17.7933 63.5097 17.46 63.5097H15.6C14.68 63.5097 13.94 63.7897 13.38 64.3497C12.86 64.8697 12.58 65.623 12.54 66.6097C12.54 67.063 12.5667 67.403 12.62 67.6297H10.68ZM5.68 56.0433H17.46C17.5933 56.0433 17.7 56.0033 17.78 55.9233C17.9 55.8433 17.96 55.7166 17.96 55.5433V55.0233H20V56.3233C20 56.8699 19.8067 57.3499 19.42 57.7633C18.98 58.2433 18.44 58.4833 17.8 58.4833H5.68V56.0433ZM10.8 49.1377H17.8C18.32 49.1377 18.8 49.311 19.24 49.6577C19.7467 50.0977 20 50.6443 20 51.2977V55.1577H17.96V52.0777C17.96 51.931 17.9067 51.8043 17.8 51.6977C17.7067 51.6043 17.5933 51.5577 17.46 51.5577H10.8V49.1377ZM21.46 50.7977C21.46 50.4377 21.5867 50.131 21.84 49.8777C22.0933 49.6243 22.4 49.4977 22.76 49.4977C23.12 49.4977 23.4267 49.6243 23.68 49.8777C23.9333 50.131 24.06 50.4377 24.06 50.7977C24.06 51.1577 23.9333 51.4643 23.68 51.7177C23.4267 51.9577 23.12 52.0777 22.76 52.0777C22.4 52.0777 22.0933 51.9577 21.84 51.7177C21.5867 51.4643 21.46 51.1577 21.46 50.7977ZM18.58 36.6702C17.8333 37.3902 16.8 37.7502 15.48 37.7502C13.9333 37.7502 12.7133 37.2968 11.82 36.3902C11.02 35.5768 10.6067 34.5035 10.58 33.1702C10.58 32.0502 10.86 31.1568 11.42 30.4902C12.06 29.7168 12.9867 29.3302 14.2 29.3302H18.1C18.6333 29.3302 19.0867 29.5168 19.46 29.8902C19.82 30.2368 20 30.6502 20 31.1302V36.8502C20 37.3568 20.2533 37.6102 20.76 37.6102H26.76L27.46 38.4702V39.3102H20.46C19.9533 39.3102 19.5133 39.1302 19.14 38.7702C18.7667 38.4102 18.58 37.9835 18.58 37.4902V36.6702ZM14.2 31.0502C13.6 31.0502 13.0933 31.2168 12.68 31.5502C12.2267 31.9502 12 32.5035 12 33.2102C12 34.0502 12.3067 34.7368 12.92 35.2702C13.52 35.7902 14.3067 36.0502 15.28 36.0502C16.32 36.0502 17.1467 35.7902 17.76 35.2702C18.3067 34.8035 18.58 34.2302 18.58 33.5502V31.7902C18.58 31.2968 18.3267 31.0502 17.82 31.0502H14.2ZM5.68 25.1427H17.82C18.0333 25.1427 18.2133 25.076 18.36 24.9427C18.5067 24.796 18.58 24.6093 18.58 24.3827V24.1227H20V25.0427C20 25.4693 19.86 25.8427 19.58 26.1627C19.1933 26.616 18.7 26.8427 18.1 26.8427H5.68V25.1427ZM6.4 17.6597C6.4 17.393 6.5 17.1664 6.7 16.9797C6.88667 16.7797 7.11333 16.6797 7.38 16.6797C7.66 16.6797 7.9 16.7797 8.1 16.9797C8.28667 17.1664 8.38 17.393 8.38 17.6597C8.38 17.9397 8.28667 18.1797 8.1 18.3797C7.9 18.5664 7.66 18.6597 7.38 18.6597C7.11333 18.6597 6.88667 18.5664 6.7 18.3797C6.5 18.1797 6.4 17.9397 6.4 17.6597ZM6.4 15.2397C6.4 14.9597 6.5 14.7264 6.7 14.5397C6.88667 14.353 7.11333 14.2597 7.38 14.2597C7.66 14.2597 7.9 14.353 8.1 14.5397C8.28667 14.7264 8.38 14.9597 8.38 15.2397C8.38 15.5064 8.28667 15.7397 8.1 15.9397C7.9 16.1264 7.66 16.2197 7.38 16.2197C7.11333 16.2197 6.88667 16.1264 6.7 15.9397C6.5 15.7397 6.4 15.5064 6.4 15.2397ZM18.58 19.7797C18.1133 20.2864 17.5333 20.6597 16.84 20.8997C16.28 21.0864 15.7267 21.1797 15.18 21.1797C13.7533 21.1797 12.62 20.753 11.78 19.8997C10.9667 19.0597 10.56 17.9197 10.56 16.4797C10.56 15.3864 10.84 14.513 11.4 13.8597C12.04 13.0997 12.9733 12.7064 14.2 12.6797H18.1C18.62 12.6797 19.0667 12.8597 19.44 13.2197C19.8133 13.5664 20 13.9864 20 14.4797L20 24.2597H18.58L18.58 19.7797ZM14.2 14.3997C13.4533 14.3997 12.88 14.6197 12.48 15.0597C12.16 15.4064 12 15.8797 12 16.4797C12 17.5864 12.3867 18.3997 13.16 18.9197C13.6933 19.293 14.3867 19.4797 15.24 19.4797C16.1467 19.4664 16.92 19.173 17.56 18.5997C18.24 17.9997 18.58 17.2064 18.58 16.2197V15.1397C18.58 14.6464 18.3267 14.3997 17.82 14.3997H14.2ZM10.8 5.86H19.82C21.3 5.86 22.4667 6.28 23.32 7.12C23.9867 7.77333 24.4267 8.65333 24.64 9.76C24.72 10.1867 24.76 10.6533 24.76 11.16C24.76 11.48 24.7533 11.7867 24.74 12.08L23.92 12.74H23.28C23.3333 12.3533 23.36 11.9333 23.36 11.48C23.36 8.86667 22.16 7.56 19.76 7.56H10.8L10.8 5.86ZM3.36 3.43312C3 3.71312 2.56 3.85312 2.04 3.85312C1.52 3.85312 1.10667 3.69979 0.799999 3.39312C0.479999 3.08646 0.319999 2.67979 0.319999 2.17312C0.319999 1.85312 0.373333 1.53312 0.479999 1.21312H1.3C1.23333 1.45312 1.2 1.68646 1.2 1.91312C1.2 2.60646 1.55333 2.95312 2.26 2.95312C2.51333 2.95312 2.74667 2.86646 2.96 2.69312C3.22667 2.47979 3.36 2.19312 3.36 1.83312L3.36 0.553125H3.7L4.18 0.953125L4.18 4.31312H3.36V3.43312ZM5.68 1.37312H19.8L20.5 2.23312V3.07312H5.68L5.68 1.37312Z" fill="#2D2D2D"/>
</svg>
