<svg width="16" height="225" viewBox="0 0 16 225" fill="none" xmlns="http://www.w3.org/2000/svg">
<path d="M15.14 217.111C15.14 218.404 14.84 219.584 14.24 220.651C13.6267 221.717 12.78 222.564 11.7 223.191C10.6067 223.804 9.38 224.111 8.02 224.111C6.66 224.111 5.44 223.804 4.36 223.191C3.26667 222.564 2.42 221.717 1.82 220.651C1.20667 219.584 0.899999 218.404 0.899999 217.111C0.899999 215.804 1.20667 214.617 1.82 213.551C2.42 212.484 3.26 211.644 4.34 211.031C5.42 210.417 6.64667 210.111 8.02 210.111C9.39333 210.111 10.62 210.417 11.7 211.031C12.78 211.644 13.6267 212.484 14.24 213.551C14.84 214.617 15.14 215.804 15.14 217.111ZM13.56 217.111C13.56 216.137 13.3333 215.264 12.88 214.491C12.4267 213.704 11.78 213.091 10.94 212.651C10.1 212.197 9.12667 211.971 8.02 211.971C6.9 211.971 5.92667 212.197 5.1 212.651C4.26 213.091 3.61333 213.697 3.16 214.471C2.70667 215.244 2.48 216.124 2.48 217.111C2.48 218.097 2.70667 218.977 3.16 219.751C3.61333 220.524 4.26 221.137 5.1 221.591C5.92667 222.031 6.9 222.251 8.02 222.251C9.12667 222.251 10.1 222.031 10.94 221.591C11.78 221.137 12.4267 220.524 12.88 219.751C13.3333 218.964 13.56 218.084 13.56 217.111ZM1.06 205.928H9.88C11.12 205.928 12.04 205.628 12.64 205.028C13.24 204.415 13.54 203.568 13.54 202.488C13.54 201.421 13.24 200.588 12.64 199.988C12.04 199.375 11.12 199.068 9.88 199.068H1.06V197.248H9.86C11.02 197.248 12 197.481 12.8 197.948C13.5867 198.415 14.1733 199.048 14.56 199.848C14.9467 200.635 15.14 201.521 15.14 202.508C15.14 203.495 14.9467 204.388 14.56 205.188C14.1733 205.975 13.5867 206.601 12.8 207.068C12 207.521 11.02 207.748 9.86 207.748H1.06V205.928ZM15 186.872L9.3 190.192V192.392H15V194.212H1.06V189.712C1.06 188.659 1.24 187.772 1.6 187.052C1.96 186.319 2.44667 185.772 3.06 185.412C3.67333 185.052 4.37333 184.872 5.16 184.872C6.12 184.872 6.96667 185.152 7.7 185.712C8.43333 186.259 8.92 187.085 9.16 188.192L15 184.692V186.872ZM7.84 192.392V189.712C7.84 188.725 7.6 187.985 7.12 187.492C6.62667 186.999 5.97333 186.752 5.16 186.752C4.33333 186.752 3.69333 186.999 3.24 187.492C2.78667 187.972 2.56 188.712 2.56 189.712V192.392H7.84ZM7.8 168.512C7.97333 167.699 8.38 167.045 9.02 166.552C9.64667 166.059 10.3667 165.812 11.18 165.812C12.3533 165.812 13.2867 166.225 13.98 167.052C14.66 167.865 15 169.005 15 170.472V177.012H0.96L0.96 170.692C0.96 169.265 1.28667 168.152 1.94 167.352C2.59333 166.539 3.48 166.132 4.6 166.132C5.42667 166.132 6.11333 166.352 6.66 166.792C7.20667 167.219 7.58667 167.792 7.8 168.512ZM6.64 173.592V171.352C6.64 170.792 6.52 170.365 6.28 170.072C6.02667 169.765 5.66 169.612 5.18 169.612C4.7 169.612 4.33333 169.765 4.08 170.072C3.82667 170.365 3.7 170.792 3.7 171.352V173.592H6.64ZM12.24 171.072C12.24 170.499 12.1133 170.059 11.86 169.752C11.5933 169.432 11.2133 169.272 10.72 169.272C10.2267 169.272 9.84 169.439 9.56 169.772C9.28 170.092 9.14 170.539 9.14 171.112V173.592H12.24V171.072ZM12.52 155.088V160.328L15 161.168V164.748L0.96 159.668V155.708L15 150.628V154.248L12.52 155.088ZM9.88 155.968L4.74 157.708L9.88 159.428V155.968ZM0.96 143.822C0.96 142.342 1.25333 141.049 1.84 139.942C2.42667 138.836 3.25333 137.982 4.32 137.382C5.37333 136.769 6.59333 136.462 7.98 136.462C9.35333 136.462 10.5733 136.769 11.64 137.382C12.7067 137.982 13.5333 138.842 14.12 139.962C14.7067 141.069 15 142.356 15 143.822V149.082H0.96L0.96 143.822ZM12.04 144.042C12.04 142.749 11.6867 141.742 10.98 141.022C10.2733 140.302 9.27333 139.942 7.98 139.942C6.68667 139.942 5.68 140.302 4.96 141.022C4.24 141.742 3.88 142.749 3.88 144.042V145.662H12.04V144.042ZM0.96 131.131H15V134.551H0.96V131.131ZM12.52 119.913V125.153L15 125.993V129.573L0.96 124.493V120.533L15 115.453V119.073L12.52 119.913ZM9.88 120.793L4.74 122.533L9.88 124.253V120.793ZM5.48 98.9682C6.29333 98.9682 7.04 99.1549 7.72 99.5282C8.38667 99.9015 8.92667 100.475 9.34 101.248C9.75333 102.022 9.96 102.982 9.96 104.128V106.248H15V109.668H0.96V104.128C0.96 103.008 1.15333 102.062 1.54 101.288C1.92667 100.515 2.46 99.9349 3.14 99.5482C3.82 99.1615 4.6 98.9682 5.48 98.9682ZM7.24 104.388C7.24 103.735 7.08667 103.248 6.78 102.928C6.47333 102.608 6.04 102.448 5.48 102.448C4.92 102.448 4.48667 102.608 4.18 102.928C3.87333 103.248 3.72 103.735 3.72 104.388V106.248H7.24V104.388ZM15.14 90.5477C15.14 91.8677 14.8333 93.0811 14.22 94.1877C13.6067 95.2811 12.7533 96.1544 11.66 96.8077C10.5533 97.4477 9.31333 97.7677 7.94 97.7677C6.56667 97.7677 5.33333 97.4477 4.24 96.8077C3.14667 96.1544 2.29333 95.2811 1.68 94.1877C1.06667 93.0811 0.76 91.8677 0.76 90.5477C0.76 89.2277 1.06667 88.0211 1.68 86.9277C2.29333 85.8211 3.14667 84.9544 4.24 84.3277C5.33333 83.6877 6.56667 83.3677 7.94 83.3677C9.31333 83.3677 10.5533 83.6877 11.66 84.3277C12.7533 84.9677 13.6067 85.8344 14.22 86.9277C14.8333 88.0211 15.14 89.2277 15.14 90.5477ZM12.02 90.5477C12.02 89.4277 11.6467 88.5344 10.9 87.8677C10.1533 87.1877 9.16667 86.8477 7.94 86.8477C6.7 86.8477 5.71333 87.1877 4.98 87.8677C4.23333 88.5344 3.86 89.4277 3.86 90.5477C3.86 91.6811 4.22667 92.5877 4.96 93.2677C5.69333 93.9344 6.68667 94.2677 7.94 94.2677C9.18 94.2677 10.1733 93.9344 10.92 93.2677C11.6533 92.5877 12.02 91.6811 12.02 90.5477ZM15 74.3051L9.7 77.2251V78.0451H15L15 81.4651H0.96V75.7251C0.96 74.6184 1.15333 73.6784 1.54 72.9051C1.92667 72.1184 2.46 71.5317 3.14 71.1451C3.80667 70.7584 4.55333 70.5651 5.38 70.5651C6.31333 70.5651 7.14667 70.8317 7.88 71.3651C8.61333 71.8851 9.13333 72.6584 9.44 73.6851L15 70.4451V74.3051ZM7.28 78.0451V75.9251C7.28 75.2984 7.12667 74.8317 6.82 74.5251C6.51333 74.2051 6.08 74.0451 5.52 74.0451C4.98667 74.0451 4.56667 74.2051 4.26 74.5251C3.95333 74.8317 3.8 75.2984 3.8 75.9251V78.0451H7.28ZM0.96 58.3182H3.7V62.0382H15V65.4582H3.7V69.1782H0.96V58.3182ZM0.96 47.4618H3.7V53.1818H6.66V48.9018H9.32V53.1818H15V56.6018H0.96V47.4618ZM15.14 39.0243C15.14 40.3443 14.8333 41.5576 14.22 42.6643C13.6067 43.7576 12.7533 44.631 11.66 45.2843C10.5533 45.9243 9.31333 46.2443 7.94 46.2443C6.56667 46.2443 5.33333 45.9243 4.24 45.2843C3.14667 44.631 2.29333 43.7576 1.68 42.6643C1.06667 41.5576 0.76 40.3443 0.76 39.0243C0.76 37.7043 1.06667 36.4976 1.68 35.4043C2.29333 34.2976 3.14667 33.431 4.24 32.8043C5.33333 32.1643 6.56667 31.8443 7.94 31.8443C9.31333 31.8443 10.5533 32.1643 11.66 32.8043C12.7533 33.4443 13.6067 34.311 14.22 35.4043C14.8333 36.4976 15.14 37.7043 15.14 39.0243ZM12.02 39.0243C12.02 37.9043 11.6467 37.011 10.9 36.3443C10.1533 35.6643 9.16667 35.3243 7.94 35.3243C6.7 35.3243 5.71333 35.6643 4.98 36.3443C4.23333 37.011 3.86 37.9043 3.86 39.0243C3.86 40.1576 4.22667 41.0643 4.96 41.7443C5.69333 42.411 6.68667 42.7443 7.94 42.7443C9.18 42.7443 10.1733 42.411 10.92 41.7443C11.6533 41.0643 12.02 40.1576 12.02 39.0243ZM12.36 26.5216V22.0416H15V29.9416H0.96L0.96 26.5216H12.36ZM0.96 16.9904H15V20.4104H0.96V16.9904ZM15.14 7.87195C15.14 9.19195 14.8333 10.4053 14.22 11.512C13.6067 12.6053 12.7533 13.4786 11.66 14.132C10.5533 14.772 9.31333 15.092 7.94 15.092C6.56667 15.092 5.33333 14.772 4.24 14.132C3.14667 13.4786 2.29333 12.6053 1.68 11.512C1.06667 10.4053 0.76 9.19195 0.76 7.87195C0.76 6.55195 1.06667 5.34529 1.68 4.25195C2.29333 3.14529 3.14667 2.27862 4.24 1.65195C5.33333 1.01195 6.56667 0.691953 7.94 0.691953C9.31333 0.691953 10.5533 1.01195 11.66 1.65195C12.7533 2.29195 13.6067 3.15862 14.22 4.25195C14.8333 5.34529 15.14 6.55195 15.14 7.87195ZM12.02 7.87195C12.02 6.75195 11.6467 5.85862 10.9 5.19195C10.1533 4.51195 9.16667 4.17195 7.94 4.17195C6.7 4.17195 5.71333 4.51195 4.98 5.19195C4.23333 5.85862 3.86 6.75195 3.86 7.87195C3.86 9.00529 4.22667 9.91195 4.96 10.592C5.69333 11.2586 6.68667 11.592 7.94 11.592C9.18 11.592 10.1733 11.2586 10.92 10.592C11.6533 9.91195 12.02 9.00529 12.02 7.87195Z" fill="#2D2D2D"/>
</svg>
