<svg width="16" height="183" viewBox="0 0 16 183" fill="none" xmlns="http://www.w3.org/2000/svg">
<path d="M7.82 175.48C7.9 174.973 8.10667 174.513 8.44 174.1C8.77333 173.673 9.18667 173.34 9.68 173.1C10.1733 172.847 10.7 172.72 11.26 172.72C11.9667 172.72 12.6067 172.9 13.18 173.26C13.74 173.62 14.1867 174.147 14.52 174.84C14.84 175.52 15 176.327 15 177.26V182.46H1.06V177.46C1.06 176.513 1.22 175.707 1.54 175.04C1.84667 174.373 2.26667 173.873 2.8 173.54C3.33333 173.207 3.93333 173.04 4.6 173.04C5.42667 173.04 6.11333 173.267 6.66 173.72C7.19333 174.16 7.58 174.747 7.82 175.48ZM7.08 180.64V177.58C7.08 176.727 6.88 176.067 6.48 175.6C6.08 175.133 5.52667 174.9 4.82 174.9C4.11333 174.9 3.56 175.133 3.16 175.6C2.76 176.067 2.56 176.74 2.56 177.62V180.64H7.08ZM13.5 177.42C13.5 176.513 13.2867 175.807 12.86 175.3C12.4333 174.793 11.84 174.54 11.08 174.54C10.3067 174.54 9.7 174.807 9.26 175.34C8.80667 175.873 8.58 176.587 8.58 177.48V180.64H13.5V177.42ZM11.9 161.954V168.034L15 169.154V171.074L1.14 166.034V163.934L15 158.914V160.834L11.9 161.954ZM10.42 162.474L3.38 164.994L10.42 167.514V162.474ZM1.06 152.378C1.06 150.858 1.34667 149.544 1.92 148.438C2.48 147.318 3.28667 146.464 4.34 145.878C5.39333 145.278 6.63333 144.978 8.06 144.978C9.48667 144.978 10.7267 145.278 11.78 145.878C12.82 146.464 13.62 147.318 14.18 148.438C14.7267 149.544 15 150.858 15 152.378L15 156.718H1.06V152.378ZM13.5 152.378C13.5 150.578 13.0267 149.204 12.08 148.258C11.12 147.311 9.78 146.838 8.06 146.838C6.32667 146.838 4.97333 147.318 4 148.278C3.02667 149.224 2.54 150.591 2.54 152.378V154.898H13.5V152.378ZM1.06 140.757H15V142.577H1.06V140.757ZM11.9 129.415V135.495L15 136.615V138.535L1.14 133.495V131.395L15 126.375V128.295L11.9 129.415ZM10.42 129.935L3.38 132.455L10.42 134.975V129.935ZM0.96 116.82H15V120.24H0.96L0.96 116.82ZM15 101.782V105.202L6.34 110.922H15V114.342H0.96V110.922L9.66 105.202H0.96L0.96 101.782H15ZM15 82.5047V85.9247L6.34 91.6447H15V95.0647H0.96V91.6447L9.66 85.9247H0.96V82.5047H15ZM0.96 76.6656H9.36C10.2 76.6656 10.8467 76.459 11.3 76.0456C11.7533 75.6323 11.98 75.0256 11.98 74.2256C11.98 73.4256 11.7533 72.8123 11.3 72.3856C10.8467 71.959 10.2 71.7456 9.36 71.7456H0.96V68.3256H9.34C10.5933 68.3256 11.6533 68.5923 12.52 69.1256C13.3867 69.659 14.04 70.379 14.48 71.2856C14.92 72.179 15.14 73.179 15.14 74.2856C15.14 75.3923 14.9267 76.3856 14.5 77.2656C14.06 78.1323 13.4067 78.819 12.54 79.3256C11.66 79.8323 10.5933 80.0856 9.34 80.0856H0.96V76.6656ZM0.96 50.0241H15V53.4441H6.58L15 56.5841V59.3441L6.56 62.5041H15V65.9241H0.96V61.8841L10.68 57.9441L0.96 54.0441V50.0241ZM7.8 39.0647C7.97333 38.2514 8.38 37.598 9.02 37.1047C9.64667 36.6114 10.3667 36.3647 11.18 36.3647C12.3533 36.3647 13.2867 36.778 13.98 37.6047C14.66 38.418 15 39.558 15 41.0247V47.5647H0.96L0.96 41.2447C0.96 39.818 1.28667 38.7047 1.94 37.9047C2.59333 37.0914 3.48 36.6847 4.6 36.6847C5.42667 36.6847 6.11333 36.9047 6.66 37.3447C7.20667 37.7714 7.58667 38.3447 7.8 39.0647ZM6.64 44.1447V41.9047C6.64 41.3447 6.52 40.918 6.28 40.6247C6.02667 40.318 5.66 40.1647 5.18 40.1647C4.7 40.1647 4.33333 40.318 4.08 40.6247C3.82667 40.918 3.7 41.3447 3.7 41.9047V44.1447H6.64ZM12.24 41.6247C12.24 41.0514 12.1133 40.6114 11.86 40.3047C11.5933 39.9847 11.2133 39.8247 10.72 39.8247C10.2267 39.8247 9.84 39.9914 9.56 40.3247C9.28 40.6447 9.14 41.0914 9.14 41.6647V44.1447H12.24V41.6247ZM3.7 30.9611H6.54V26.3811H9.18V30.9611H12.26V25.7811H15V34.3811H0.96L0.96 25.7811H3.7V30.9611ZM15 16.4008L9.7 19.3208V20.1408H15V23.5608H0.96V17.8208C0.96 16.7141 1.15333 15.7741 1.54 15.0008C1.92667 14.2141 2.46 13.6274 3.14 13.2408C3.80667 12.8541 4.55333 12.6608 5.38 12.6608C6.31333 12.6608 7.14667 12.9274 7.88 13.4608C8.61333 13.9808 9.13333 14.7541 9.44 15.7808L15 12.5408V16.4008ZM7.28 20.1408V18.0208C7.28 17.3941 7.12667 16.9274 6.82 16.6208C6.51333 16.3008 6.08 16.1408 5.52 16.1408C4.98667 16.1408 4.56667 16.3008 4.26 16.6208C3.95333 16.9274 3.8 17.3941 3.8 18.0208V20.1408H7.28ZM15.14 5.43391C15.14 6.46057 14.9733 7.38057 14.64 8.19391C14.3067 9.00724 13.8133 9.66057 13.16 10.1539C12.5067 10.6339 11.72 10.8872 10.8 10.9139V7.27391C11.32 7.22057 11.72 7.04057 12 6.73391C12.2667 6.42724 12.4 6.02724 12.4 5.53391C12.4 5.02724 12.2867 4.62724 12.06 4.33391C11.82 4.04057 11.4933 3.89391 11.08 3.89391C10.7333 3.89391 10.4467 4.01391 10.22 4.25391C9.99333 4.48057 9.80667 4.76724 9.66 5.11391C9.51333 5.44724 9.34667 5.92724 9.16 6.55391C8.88 7.46057 8.6 8.20057 8.32 8.77391C8.04 9.34724 7.62667 9.84057 7.08 10.2539C6.53333 10.6672 5.82 10.8739 4.94 10.8739C3.63333 10.8739 2.61333 10.4006 1.88 9.45391C1.13333 8.50724 0.76 7.27391 0.76 5.75391C0.76 4.20724 1.13333 2.96057 1.88 2.01391C2.61333 1.06724 3.64 0.560572 4.96 0.493906V4.19391C4.50667 4.22057 4.15333 4.38724 3.9 4.69391C3.63333 5.00057 3.5 5.39391 3.5 5.87391C3.5 6.28724 3.61333 6.62057 3.84 6.87391C4.05333 7.12724 4.36667 7.25391 4.78 7.25391C5.23333 7.25391 5.58667 7.04057 5.84 6.61391C6.09333 6.18724 6.36667 5.52057 6.66 4.61391C6.96667 3.70724 7.26 2.97391 7.54 2.41391C7.82 1.84057 8.22667 1.34724 8.76 0.933906C9.29333 0.520573 9.98 0.313906 10.82 0.313906C11.62 0.313906 12.3467 0.520573 13 0.933906C13.6533 1.33391 14.1733 1.92057 14.56 2.69391C14.9467 3.46724 15.14 4.38057 15.14 5.43391Z" fill="#2D2D2D"/>
</svg>
